#N canvas 1838 903 1440 787 12;
#X obj 58 0 notein;
#X floatatom 41 29 5 0 0 0 - - - 0;
#X floatatom 85 30 5 0 0 0 - - - 0;
#X floatatom 129 30 5 0 0 0 - - - 0;
#X obj 422 131 dac~;
#X obj 426 90 *~;
#X obj 522 43 vsl 15 128 0 1 0 0 empty empty empty 0 -9 0 10 #fcfcfc
#000000 #000000 0 1;
#X obj 41 129 poly 6;
#X obj 354 42 catch~ aux1;
#X obj 58 278 tgl 15 0 empty empty empty 17 7 0 10 #fcfcfc #000000
#000000 0 1;
#X obj 28 337 bng 15 250 50 0 empty empty empty 17 7 0 10 #fcfcfc #000000
#000000;
#X floatatom 91 370 5 0 0 0 - - - 0;
#X obj 87 342 int;
#X obj 41 92 pack 0 0;
#X obj 138 90 r midi1;
#X obj 187 142 poly 6;
#X obj 38 180 pack 0 0 0;
#X obj 183 179 pack 0 0 0;
#X msg 168 277 1;
#X text 161 303 2000：一個小節需要的時間, f 16;
#X text 30 256 點擊這個toggle即可開始演奏;
#X obj 231 91 r midi2;
#X floatatom 307 186 5 0 0 0 - - - 0;
#X obj 124 343 + 1;
#X obj 50 1001 r lefthand;
#X obj 88 471 sel 0 1 2 3;
#X obj 132 412 % 4;
#X obj 89 517 s sec0;
#X obj 577 36 r sec0;
#X obj 18 1065 press 64 0.5 midi2;
#X obj 18 1089 press 63 0.5 midi2;
#X obj 18 1113 press 64 0.5 midi2;
#X obj 18 1137 press 63 0.5 midi2;
#X obj 18 1161 press 64 0.5 midi2;
#X obj 18 1185 press 59 0.5 midi2;
#X obj 18 1209 press 62 0.5 midi2;
#X obj 18 1233 press 60 0.5 midi2;
#X obj 158 1063 press 57 0.5 midi2;
#X obj 158 1087 press 64 0.5 midi2;
#X obj 158 1111 press 69 2 midi2;
#X obj 158 1135 press 52 0.5 midi2;
#X obj 158 1159 press 64 0.5 midi2;
#X obj 158 1183 press 68 2 midi2;
#X obj 158 1207 press 57 0.5 midi2;
#X obj 158 1231 press 64 0.5 midi2;
#X obj 305 1061 press 64 0.5 midi2;
#X obj 305 1085 press 63 0.5 midi2;
#X obj 158 1255 press 69 2 midi2;
#X obj 305 1109 press 64 0.5 midi2;
#X obj 305 1133 press 59 0.5 midi2;
#X obj 305 1157 press 62 0.5 midi2;
#X obj 305 1181 press 60 0.5 midi2;
#X obj 451 1059 press 57 0.5 midi2;
#X obj 451 1083 press 64 0.5 midi2;
#X obj 451 1107 press 69 2 midi2;
#X obj 451 1131 press 52 0.5 midi2;
#X obj 451 1155 press 64 0.5 midi2;
#X obj 451 1179 press 68 2 midi2;
#X obj 451 1203 press 57 0.5 midi2;
#X obj 451 1227 press 64 0.5 midi2;
#X obj 451 1251 press 69 2 midi2;
#X obj 60 302 metro 200000;
#X obj 577 71 press 88 0.5 midi1;
#X obj 577 95 press 87 0.5 midi1;
#X obj 577 119 press 88 0.5 midi1;
#X obj 577 143 press 87 0.5 midi1;
#X obj 577 167 press 88 0.5 midi1;
#X obj 577 191 press 83 0.5 midi1;
#X obj 577 215 press 86 0.5 midi1;
#X obj 577 239 press 84 0.5 midi1;
#X obj 721 69 press 81 1.5 midi1;
#X obj 721 93 press 72 0.5 midi1;
#X obj 721 117 press 76 0.5 midi1;
#X obj 721 141 press 81 0.5 midi1;
#X obj 721 165 press 83 1.5 midi1;
#X obj 721 189 press 76 0.5 midi1;
#X obj 721 213 press 80 0.5 midi1;
#X obj 721 237 press 83 0.5 midi1;
#X obj 863 67 press 84 1.5 midi1;
#X obj 863 91 press 76 0.5 midi1;
#X obj 863 115 press 88 0.5 midi1;
#X obj 863 139 press 87 0.5 midi1;
#X obj 863 163 press 88 0.5 midi1;
#X obj 863 187 press 87 0.5 midi1;
#X obj 863 211 press 88 0.5 midi1;
#X obj 863 235 press 83 0.5 midi1;
#X obj 863 259 press 86 0.5 midi1;
#X obj 863 283 press 84 0.5 midi1;
#X obj 1008 67 press 81 1.5 midi1;
#X obj 1008 91 press 72 0.5 midi1;
#X obj 1008 115 press 76 0.5 midi1;
#X obj 1008 139 press 81 0.5 midi1;
#X obj 1008 163 press 83 1.5 midi1;
#X obj 1008 187 press 76 0.5 midi1;
#X obj 1008 211 press 84 0.5 midi1;
#X obj 1008 235 press 83 0.5 midi1;
#X obj 1008 259 press 81 3 midi1;
#X obj 1158 66 press 88 0.5 midi1;
#X obj 1158 90 press 87 0.5 midi1;
#X obj 1158 114 press 88 0.5 midi1;
#X obj 1158 138 press 87 0.5 midi1;
#X obj 1158 162 press 88 0.5 midi1;
#X obj 1158 186 press 83 0.5 midi1;
#X obj 1158 210 press 86 0.5 midi1;
#X obj 1158 234 press 84 0.5 midi1;
#X obj 1302 64 press 81 1.5 midi1;
#X obj 1302 88 press 72 0.5 midi1;
#X obj 1302 112 press 76 0.5 midi1;
#X obj 1302 136 press 81 0.5 midi1;
#X obj 1302 160 press 83 1.5 midi1;
#X obj 1302 184 press 76 0.5 midi1;
#X obj 1302 208 press 80 0.5 midi1;
#X obj 1302 232 press 83 0.5 midi1;
#X obj 1444 62 press 84 1.5 midi1;
#X obj 1444 86 press 76 0.5 midi1;
#X obj 1444 110 press 88 0.5 midi1;
#X obj 1444 134 press 87 0.5 midi1;
#X obj 1444 158 press 88 0.5 midi1;
#X obj 1444 182 press 87 0.5 midi1;
#X obj 1444 206 press 88 0.5 midi1;
#X obj 1444 230 press 83 0.5 midi1;
#X obj 1444 254 press 86 0.5 midi1;
#X obj 1444 278 press 84 0.5 midi1;
#X obj 1589 62 press 81 1.5 midi1;
#X obj 1589 86 press 72 0.5 midi1;
#X obj 1589 110 press 76 0.5 midi1;
#X obj 1589 134 press 81 0.5 midi1;
#X obj 1589 158 press 83 1.5 midi1;
#X obj 1589 182 press 76 0.5 midi1;
#X obj 1589 206 press 84 0.5 midi1;
#X obj 1589 230 press 83 0.5 midi1;
#X obj 1589 254 press 81 3 midi1;
#X obj 606 1058 press 64 0.5 midi2;
#X obj 606 1082 press 63 0.5 midi2;
#X obj 606 1106 press 64 0.5 midi2;
#X obj 606 1130 press 63 0.5 midi2;
#X obj 606 1154 press 64 0.5 midi2;
#X obj 606 1178 press 59 0.5 midi2;
#X obj 606 1202 press 62 0.5 midi2;
#X obj 606 1226 press 60 0.5 midi2;
#X obj 746 1056 press 57 0.5 midi2;
#X obj 746 1080 press 64 0.5 midi2;
#X obj 746 1104 press 69 2 midi2;
#X obj 746 1128 press 52 0.5 midi2;
#X obj 746 1152 press 64 0.5 midi2;
#X obj 746 1176 press 68 2 midi2;
#X obj 746 1200 press 57 0.5 midi2;
#X obj 746 1224 press 64 0.5 midi2;
#X obj 893 1054 press 64 0.5 midi2;
#X obj 893 1078 press 63 0.5 midi2;
#X obj 746 1248 press 69 2 midi2;
#X obj 893 1102 press 64 0.5 midi2;
#X obj 893 1126 press 59 0.5 midi2;
#X obj 893 1150 press 62 0.5 midi2;
#X obj 893 1174 press 60 0.5 midi2;
#X obj 1039 1052 press 57 0.5 midi2;
#X obj 1039 1076 press 64 0.5 midi2;
#X obj 1039 1100 press 69 2 midi2;
#X obj 1039 1124 press 52 0.5 midi2;
#X obj 1039 1148 press 64 0.5 midi2;
#X obj 1039 1172 press 68 2 midi2;
#X obj 1039 1196 press 57 0.5 midi2;
#X obj 1039 1220 press 64 0.5 midi2;
#X obj 1039 1244 press 69 2 midi2;
#X obj 430 284 writesf~ 1;
#X msg 438 228 start;
#X msg 468 255 end;
#X text 265 362 comment, f 20;
#X msg 379 201 open chick_Für_Elise.wav;
#X obj 39 231 clone chick 7 50 50 0.5 300;
#X obj 307 217 + 0;
#X connect 0 0 1 0;
#X connect 0 1 2 0;
#X connect 0 2 3 0;
#X connect 1 0 13 0;
#X connect 2 0 13 1;
#X connect 5 0 4 0;
#X connect 5 0 4 1;
#X connect 5 0 164 0;
#X connect 6 0 5 1;
#X connect 7 0 16 0;
#X connect 7 1 16 1;
#X connect 7 2 16 2;
#X connect 8 0 5 0;
#X connect 9 0 61 0;
#X connect 11 0 26 0;
#X connect 12 0 11 0;
#X connect 12 0 23 0;
#X connect 13 0 7 0;
#X connect 14 0 15 0;
#X connect 15 0 17 0;
#X connect 15 1 22 0;
#X connect 15 2 17 2;
#X connect 16 0 169 0;
#X connect 17 0 169 0;
#X connect 18 0 12 1;
#X connect 21 0 15 0;
#X connect 22 0 170 0;
#X connect 23 0 12 1;
#X connect 24 0 29 0;
#X connect 25 0 27 0;
#X connect 25 1 27 0;
#X connect 25 2 27 0;
#X connect 25 3 27 0;
#X connect 25 4 27 0;
#X connect 26 0 25 0;
#X connect 28 0 62 0;
#X connect 29 0 30 0;
#X connect 30 0 31 0;
#X connect 31 0 32 0;
#X connect 32 0 33 0;
#X connect 33 0 34 0;
#X connect 34 0 35 0;
#X connect 35 0 36 0;
#X connect 36 0 37 0;
#X connect 37 0 38 0;
#X connect 38 0 39 0;
#X connect 39 0 40 0;
#X connect 40 0 41 0;
#X connect 41 0 42 0;
#X connect 42 0 43 0;
#X connect 43 0 44 0;
#X connect 44 0 47 0;
#X connect 45 0 46 0;
#X connect 46 0 48 0;
#X connect 47 0 45 0;
#X connect 48 0 49 0;
#X connect 49 0 50 0;
#X connect 50 0 51 0;
#X connect 51 0 52 0;
#X connect 52 0 53 0;
#X connect 53 0 54 0;
#X connect 54 0 55 0;
#X connect 55 0 56 0;
#X connect 56 0 57 0;
#X connect 57 0 58 0;
#X connect 58 0 59 0;
#X connect 59 0 60 0;
#X connect 60 0 132 0;
#X connect 61 0 10 0;
#X connect 61 0 12 0;
#X connect 61 0 29 0;
#X connect 62 0 63 0;
#X connect 63 0 64 0;
#X connect 64 0 65 0;
#X connect 65 0 66 0;
#X connect 66 0 67 0;
#X connect 67 0 68 0;
#X connect 68 0 69 0;
#X connect 69 0 70 0;
#X connect 70 0 71 0;
#X connect 71 0 72 0;
#X connect 72 0 73 0;
#X connect 73 0 74 0;
#X connect 74 0 75 0;
#X connect 75 0 76 0;
#X connect 76 0 77 0;
#X connect 77 0 78 0;
#X connect 78 0 79 0;
#X connect 79 0 80 0;
#X connect 80 0 81 0;
#X connect 81 0 82 0;
#X connect 82 0 83 0;
#X connect 83 0 84 0;
#X connect 84 0 85 0;
#X connect 85 0 86 0;
#X connect 86 0 87 0;
#X connect 87 0 88 0;
#X connect 88 0 89 0;
#X connect 89 0 90 0;
#X connect 90 0 91 0;
#X connect 91 0 92 0;
#X connect 92 0 93 0;
#X connect 93 0 94 0;
#X connect 94 0 95 0;
#X connect 95 0 96 0;
#X connect 96 0 97 0;
#X connect 97 0 98 0;
#X connect 98 0 99 0;
#X connect 99 0 100 0;
#X connect 100 0 101 0;
#X connect 101 0 102 0;
#X connect 102 0 103 0;
#X connect 103 0 104 0;
#X connect 104 0 105 0;
#X connect 105 0 106 0;
#X connect 106 0 107 0;
#X connect 107 0 108 0;
#X connect 108 0 109 0;
#X connect 109 0 110 0;
#X connect 110 0 111 0;
#X connect 111 0 112 0;
#X connect 112 0 113 0;
#X connect 113 0 114 0;
#X connect 114 0 115 0;
#X connect 115 0 116 0;
#X connect 116 0 117 0;
#X connect 117 0 118 0;
#X connect 118 0 119 0;
#X connect 119 0 120 0;
#X connect 120 0 121 0;
#X connect 121 0 122 0;
#X connect 122 0 123 0;
#X connect 123 0 124 0;
#X connect 124 0 125 0;
#X connect 125 0 126 0;
#X connect 126 0 127 0;
#X connect 127 0 128 0;
#X connect 128 0 129 0;
#X connect 129 0 130 0;
#X connect 130 0 131 0;
#X connect 132 0 133 0;
#X connect 133 0 134 0;
#X connect 134 0 135 0;
#X connect 135 0 136 0;
#X connect 136 0 137 0;
#X connect 137 0 138 0;
#X connect 138 0 139 0;
#X connect 139 0 140 0;
#X connect 140 0 141 0;
#X connect 141 0 142 0;
#X connect 142 0 143 0;
#X connect 143 0 144 0;
#X connect 144 0 145 0;
#X connect 145 0 146 0;
#X connect 146 0 147 0;
#X connect 147 0 150 0;
#X connect 148 0 149 0;
#X connect 149 0 151 0;
#X connect 150 0 148 0;
#X connect 151 0 152 0;
#X connect 152 0 153 0;
#X connect 153 0 154 0;
#X connect 154 0 155 0;
#X connect 155 0 156 0;
#X connect 156 0 157 0;
#X connect 157 0 158 0;
#X connect 158 0 159 0;
#X connect 159 0 160 0;
#X connect 160 0 161 0;
#X connect 161 0 162 0;
#X connect 162 0 163 0;
#X connect 165 0 164 0;
#X connect 166 0 164 0;
#X connect 168 0 164 0;
#X connect 170 0 17 1;
