#N canvas 1408 10 1502 2013 12;
#X obj 58 0 notein;
#X floatatom 41 29 5 0 0 0 - - - 0;
#X floatatom 85 30 5 0 0 0 - - - 0;
#X floatatom 129 30 5 0 0 0 - - - 0;
#X obj 422 131 dac~;
#X obj 426 90 *~;
#X obj 574 10 vsl 15 128 0 1 0 0 empty empty empty 0 -9 0 10 #fcfcfc
#000000 #000000 0 1;
#X obj 41 129 poly 6;
#X obj 354 42 catch~ aux1;
#X obj 42 290 tgl 15 0 empty empty empty 17 7 0 10 #fcfcfc #000000
#000000 0 1;
#X obj 12 349 bng 15 250 50 0 empty empty empty 17 7 0 10 #fcfcfc #000000
#000000;
#X floatatom 44 386 5 0 0 0 - - - 0;
#X obj 44 353 int;
#X obj 43 410 sel 1 2 3 4 5 6 7 8;
#X obj 41 92 pack 0 0;
#X obj 187 112 r midi1;
#X obj 187 142 poly 6;
#X obj 38 180 pack 0 0 0;
#X obj 183 179 pack 0 0 0;
#X obj 44 475 press 60 0.5 midi1;
#X obj 44 502 press 60 0.5 midi1;
#X obj 44 527 press 67 0.5 midi1;
#X obj 44 553 press 67 0.5 midi1;
#X obj 45 580 press 69 0.5 midi1;
#X obj 45 607 press 69 0.5 midi1;
#X obj 45 635 press 67 1 midi1;
#X obj 190 475 press 65 0.5 midi1;
#X obj 190 502 press 65 0.5 midi1;
#X obj 190 527 press 64 0.5 midi1;
#X obj 190 553 press 64 0.5 midi1;
#X obj 191 580 press 62 0.5 midi1;
#X obj 191 607 press 62 0.5 midi1;
#X obj 191 635 press 60 1 midi1;
#X obj 335 475 press 67 0.5 midi1;
#X obj 335 502 press 67 0.5 midi1;
#X obj 335 527 press 65 0.5 midi1;
#X obj 335 553 press 65 0.5 midi1;
#X obj 336 580 press 64 0.5 midi1;
#X obj 336 606 press 64 0.5 midi1;
#X obj 336 635 press 62 1 midi1;
#X obj 477 476 press 67 0.5 midi1;
#X obj 477 503 press 67 0.5 midi1;
#X obj 477 528 press 65 0.5 midi1;
#X obj 477 554 press 65 0.5 midi1;
#X obj 478 581 press 64 0.5 midi1;
#X obj 478 607 press 64 0.5 midi1;
#X obj 478 636 press 62 1 midi1;
#X msg 152 289 1;
#X obj 43 314 metro 2000;
#X text 128 315 2000：一個小節需要的時間;
#X text 44 663 press講解：bang他之後會立刻傳給midi1 (67
1) 在等待1個四分音符的時間之後 傳給midi1(67 0) 並在outlet處傳出下一個bang
, f 20;
#X text 507 146 在聽音樂之前記得拉這個，不然沒聲音
, f 20;
#X text 14 268 點擊這個toggle即可開始演奏;
#X obj 81 354 + 1;
#X obj 465 315 writesf~ 1;
#X msg 472 234 start;
#X msg 513 266 end;
#X floatatom 286 181 5 0 0 0 - - - 0;
#X msg 431 192 open chick_star.wav;
#X obj 40 236 clone chick 7 50 50 0.5 300;
#X obj 286 204 + 12;
#X connect 0 0 1 0;
#X connect 0 1 2 0;
#X connect 0 2 3 0;
#X connect 1 0 14 0;
#X connect 2 0 14 1;
#X connect 5 0 4 0;
#X connect 5 0 4 1;
#X connect 5 0 54 0;
#X connect 6 0 5 1;
#X connect 7 0 17 0;
#X connect 7 1 17 1;
#X connect 7 2 17 2;
#X connect 8 0 5 0;
#X connect 9 0 48 0;
#X connect 11 0 13 0;
#X connect 12 0 11 0;
#X connect 12 0 53 0;
#X connect 13 0 19 0;
#X connect 13 1 26 0;
#X connect 13 2 33 0;
#X connect 13 3 40 0;
#X connect 13 4 19 0;
#X connect 13 5 26 0;
#X connect 14 0 7 0;
#X connect 15 0 16 0;
#X connect 16 0 18 0;
#X connect 16 1 57 0;
#X connect 16 2 18 2;
#X connect 17 0 59 0;
#X connect 18 0 59 0;
#X connect 19 0 20 0;
#X connect 20 0 21 0;
#X connect 21 0 22 0;
#X connect 22 0 23 0;
#X connect 23 0 24 0;
#X connect 24 0 25 0;
#X connect 26 0 27 0;
#X connect 27 0 28 0;
#X connect 28 0 29 0;
#X connect 29 0 30 0;
#X connect 30 0 31 0;
#X connect 31 0 32 0;
#X connect 33 0 34 0;
#X connect 34 0 35 0;
#X connect 35 0 36 0;
#X connect 36 0 37 0;
#X connect 37 0 38 0;
#X connect 38 0 39 0;
#X connect 40 0 41 0;
#X connect 41 0 42 0;
#X connect 42 0 43 0;
#X connect 43 0 44 0;
#X connect 44 0 45 0;
#X connect 45 0 46 0;
#X connect 47 0 12 1;
#X connect 48 0 10 0;
#X connect 48 0 12 0;
#X connect 53 0 12 1;
#X connect 55 0 54 0;
#X connect 56 0 54 0;
#X connect 57 0 60 0;
#X connect 58 0 54 0;
#X connect 60 0 18 1;
