#N canvas 758 391 1440 789 12;
#X obj 58 0 notein;
#X floatatom 41 29 5 0 0 0 - - - 0;
#X floatatom 85 30 5 0 0 0 - - - 0;
#X floatatom 129 30 5 0 0 0 - - - 0;
#X obj 422 131 dac~;
#X obj 426 90 *~;
#X obj 543 14 vsl 15 128 0 1 0 0 empty empty empty 0 -9 0 10 #fcfcfc
#000000 #000000 0 1;
#X obj 41 129 poly 6;
#X obj 354 42 catch~ aux1;
#X obj 58 278 tgl 15 0 empty empty empty 17 7 0 10 #fcfcfc #000000
#000000 0 1;
#X obj 28 337 bng 15 250 50 0 empty empty empty 17 7 0 10 #fcfcfc #000000
#000000;
#X floatatom 91 370 5 0 0 0 - - - 0;
#X obj 87 342 int;
#X obj 41 92 pack 0 0;
#X obj 138 90 r midi1;
#X obj 187 142 poly 6;
#X obj 38 180 pack 0 0 0;
#X obj 183 179 pack 0 0 0;
#X text 164 303 2000：一個小節需要的時間;
#X text 357 307 在聽音樂之前記得拉這個，不然沒聲音
, f 20;
#X text 30 256 點擊這個toggle即可開始演奏;
#X obj 231 91 r midi2;
#X floatatom 307 186 5 0 0 0 - - - 0;
#X obj 124 343 + 1;
#X obj 97 534 s sec3;
#X obj 110 561 s sec4;
#X obj 124 590 s sec5;
#X obj 137 619 s sec6;
#X obj 148 650 s sec7;
#X obj 159 677 s sec8;
#X obj 84 968 r lefthand;
#X obj 169 511 s sec9;
#X obj 176 537 s sec10;
#X obj 189 564 s sec11;
#X obj 203 593 s sec12;
#X obj 216 622 s sec13;
#X obj 227 653 s sec14;
#X obj 239 680 s sec15;
#X obj 365 528 s sec16;
#X obj 374 554 s sec17;
#X obj 385 581 s sec18;
#X obj 399 610 s sec19;
#X obj 412 639 s sec20;
#X obj 423 670 s sec21;
#X obj 434 697 s sec22;
#X obj 454 531 s sec23;
#X obj 465 558 s sec24;
#X obj 18 1037 press 43 0.5 midi2;
#X obj 18 1064 press 50 0.5 midi2;
#X obj 18 1089 press 58 0.5 midi2;
#X obj 18 1115 press 50 0.5 midi2;
#X obj 19 1142 press 58 0.5 midi2;
#X obj 19 1169 press 50 0.5 midi2;
#X obj 19 1197 press 58 0.5 midi2;
#X obj 19 1224 press 50 0.5 midi2;
#X obj 161 1038 press 43 0.5 midi2;
#X obj 161 1065 press 50 0.5 midi2;
#X obj 161 1090 press 58 0.5 midi2;
#X obj 161 1116 press 50 0.5 midi2;
#X obj 162 1143 press 58 0.5 midi2;
#X obj 162 1170 press 50 0.5 midi2;
#X obj 162 1198 press 58 0.5 midi2;
#X obj 162 1225 press 50 0.5 midi2;
#X obj 313 1036 press 51 0.5 midi2;
#X obj 313 1060 press 55 0.5 midi2;
#X obj 313 1108 press 55 0.5 midi2;
#X obj 313 1156 press 55 0.5 midi2;
#X obj 464 1037 press 41 0.5 midi2;
#X obj 464 1064 press 48 0.5 midi2;
#X obj 464 1089 press 57 0.5 midi2;
#X obj 464 1115 press 48 0.5 midi2;
#X obj 465 1142 press 57 0.5 midi2;
#X obj 465 1169 press 48 0.5 midi2;
#X obj 465 1197 press 57 0.5 midi2;
#X obj 606 1036 press 48 0.5 midi2;
#X obj 606 1063 press 53 0.5 midi2;
#X obj 606 1088 press 62 0.5 midi2;
#X obj 606 1114 press 50 1 midi2;
#X obj 607 1141 press 62 2 midi2;
#X obj 750 1035 press 43 0.5 midi2;
#X obj 750 1059 press 50 0.5 midi2;
#X obj 750 1083 press 58 0.5 midi2;
#X obj 750 1107 press 50 0.5 midi2;
#X obj 750 1131 press 58 0.5 midi2;
#X obj 750 1155 press 50 0.5 midi2;
#X obj 750 1185 press 43 0.5 midi2;
#X obj 750 1209 press 50 0.5 midi2;
#X obj 750 1233 press 58 0.5 midi2;
#X obj 750 1257 press 48 0.5 midi2;
#X obj 750 1281 press 55 0.5 midi2;
#X obj 750 1305 press 63 0.5 midi2;
#X obj 313 1084 press 63 0.5 midi2;
#X obj 313 1132 press 63 0.5 midi2;
#X obj 904 1034 press 55 0.5 midi2;
#X obj 904 1058 press 63 0.5 midi2;
#X obj 904 1082 press 55 0.5 midi2;
#X obj 904 1106 press 41 0.5 midi2;
#X obj 904 1130 press 48 0.5 midi2;
#X obj 904 1154 press 57 0.5 midi2;
#X obj 904 1178 press 46 0.5 midi2;
#X obj 904 1202 press 58 0.5 midi2;
#X obj 904 1226 press 57 0.5 midi2;
#X obj 650 76 press 43 0.5 midi2;
#X obj 650 103 press 50 0.5 midi2;
#X obj 650 128 press 58 0.5 midi2;
#X obj 650 154 press 50 0.5 midi2;
#X obj 651 181 press 58 0.5 midi2;
#X obj 651 208 press 50 0.5 midi2;
#X obj 651 236 press 58 0.5 midi2;
#X obj 651 263 press 50 0.25 midi2;
#X obj 651 287 press 79 0.25 midi2;
#X obj 816 75 press 79 0.25 midi2;
#X obj 816 99 press 81 0.25 midi2;
#X obj 816 123 press 81 0.25 midi2;
#X obj 816 147 press 82 0.25 midi2;
#X obj 816 171 press 82 0.25 midi2;
#X obj 816 195 press 81 0.25 midi2;
#X obj 816 219 press 81 0.25 midi2;
#X obj 816 243 press 79 0.25 midi2;
#X obj 816 267 press 79 0.25 midi2;
#X obj 816 291 press 74 0.25 midi2;
#X obj 816 315 press 74 0.25 midi2;
#X obj 816 339 press 70 0.25 midi2;
#X obj 816 363 press 70 0.25 midi2;
#X obj 816 387 press 67 0.25 midi2;
#X obj 816 411 press 67 0.25 midi2;
#X obj 816 435 press 77 0.25 midi2;
#X obj 987 72 press 77 0.25 midi2;
#X obj 987 120 press 75 0.25 midi2;
#X obj 987 96 press 75 0.25 midi2;
#X obj 987 144 press 74 0.25 midi2;
#X obj 987 168 press 75 0.25 midi2;
#X obj 987 192 press 77 0.25 midi2;
#X obj 987 216 press 75 1.5 midi2;
#X obj 1143 71 press 41 0.25 midi2;
#X obj 1143 95 press 75 0.25 midi2;
#X obj 1143 119 press 75 0.25 midi2;
#X obj 1143 143 press 77 0.25 midi2;
#X obj 1143 167 press 77 0.25 midi2;
#X obj 1143 191 press 79 0.25 midi2;
#X obj 1143 215 press 79 0.25 midi2;
#X obj 1143 239 press 81 0.25 midi2;
#X obj 1143 263 press 81 0.25 midi2;
#X obj 1143 287 press 77 0.25 midi2;
#X obj 1143 311 press 77 0.25 midi2;
#X obj 1143 335 press 72 0.25 midi2;
#X obj 1143 359 press 72 0.25 midi2;
#X obj 1143 383 press 75 0.25 midi2;
#X obj 1297 70 press 75 0.25 midi2;
#X obj 1297 94 press 74 0.25 midi2;
#X obj 1297 118 press 74 0.25 midi2;
#X obj 1297 142 press 72 0.25 midi2;
#X obj 1297 166 press 72 0.25 midi2;
#X obj 1297 190 press 75 0.25 midi2;
#X obj 1297 214 press 74 1 midi2;
#X obj 1297 238 press 86 2 midi2;
#X obj 1457 68 press 74 0.5 midi2;
#X obj 1457 92 press 67 0.25 midi2;
#X obj 1457 116 press 70 0.25 midi2;
#X obj 1457 140 press 74 0.25 midi2;
#X obj 1457 164 press 72 0.25 midi2;
#X obj 1457 188 press 74 0.5 midi2;
#X obj 1457 216 press 67 0.25 midi2;
#X obj 1457 240 press 70 0.25 midi2;
#X obj 1457 264 press 74 0.25 midi2;
#X obj 1457 288 press 72 0.25 midi2;
#X obj 1457 316 press 74 0.5 midi2;
#X obj 1457 340 press 67 0.25 midi2;
#X obj 1457 364 press 70 0.25 midi2;
#X obj 1457 388 press 75 0.25 midi2;
#X obj 1457 412 press 74 0.25 midi2;
#X obj 1457 436 press 75 0.5 midi2;
#X obj 1457 467 press 67 0.25 midi2;
#X obj 1457 491 press 70 0.25 midi2;
#X obj 1457 515 press 75 0.25 midi2;
#X obj 1457 539 press 74 0.25 midi2;
#X obj 1618 66 press 75 0.5 midi2;
#X obj 1618 90 press 75 0.25 midi2;
#X obj 1618 114 press 74 0.25 midi2;
#X obj 1618 138 press 75 0.25 midi2;
#X obj 1618 162 press 76 0.25 midi2;
#X obj 1618 186 press 77 0.5 midi2;
#X obj 1618 210 press 77 0.25 midi2;
#X obj 1618 234 press 79 0.25 midi2;
#X obj 1618 258 press 77 0.25 midi2;
#X obj 1618 282 press 79 0.25 midi2;
#X obj 1618 306 press 74 1.5 midi2;
#X obj 1054 1032 press 43 0.5 midi2;
#X obj 1054 1056 press 50 0.5 midi2;
#X obj 1054 1080 press 58 0.5 midi2;
#X obj 1054 1104 press 50 0.5 midi2;
#X obj 1054 1128 press 58 0.5 midi2;
#X obj 1054 1152 press 50 0.5 midi2;
#X obj 1054 1182 press 43 0.5 midi2;
#X obj 1054 1206 press 50 0.5 midi2;
#X obj 1054 1230 press 58 0.5 midi2;
#X obj 1054 1254 press 48 0.5 midi2;
#X obj 1054 1278 press 55 0.5 midi2;
#X obj 1054 1302 press 63 0.5 midi2;
#X obj 1208 1031 press 55 0.5 midi2;
#X obj 1208 1055 press 63 0.5 midi2;
#X obj 1208 1079 press 55 0.5 midi2;
#X obj 1208 1103 press 41 0.5 midi2;
#X obj 1208 1127 press 48 0.5 midi2;
#X obj 1208 1151 press 57 0.5 midi2;
#X obj 1208 1175 press 46 0.5 midi2;
#X obj 1208 1199 press 58 0.5 midi2;
#X obj 1208 1223 press 57 0.5 midi2;
#X obj 1780 63 press 86 0.5 midi2;
#X obj 1780 87 press 79 0.25 midi2;
#X obj 1780 111 press 82 0.25 midi2;
#X obj 1780 135 press 86 0.25 midi2;
#X obj 1780 159 press 84 0.25 midi2;
#X obj 1780 183 press 86 0.5 midi2;
#X obj 1780 211 press 79 0.25 midi2;
#X obj 1780 235 press 82 0.25 midi2;
#X obj 1780 259 press 86 0.25 midi2;
#X obj 1780 283 press 84 0.25 midi2;
#X obj 1780 311 press 86 0.5 midi2;
#X obj 1780 335 press 79 0.25 midi2;
#X obj 1780 359 press 82 0.25 midi2;
#X obj 1780 383 press 87 0.25 midi2;
#X obj 1780 407 press 86 0.25 midi2;
#X obj 1780 431 press 87 0.5 midi2;
#X obj 1780 462 press 79 0.25 midi2;
#X obj 1780 486 press 82 0.25 midi2;
#X obj 1780 510 press 87 0.25 midi2;
#X obj 1780 534 press 86 0.25 midi2;
#X obj 1941 61 press 87 0.5 midi2;
#X obj 1941 85 press 87 0.25 midi2;
#X obj 1941 109 press 86 0.25 midi2;
#X obj 1941 133 press 87 0.25 midi2;
#X obj 1941 157 press 88 0.25 midi2;
#X obj 1941 181 press 89 0.5 midi2;
#X obj 1941 205 press 89 0.25 midi2;
#X obj 1941 229 press 91 0.25 midi2;
#X obj 1941 253 press 89 0.25 midi2;
#X obj 1941 277 press 91 0.25 midi2;
#X obj 1941 301 press 86 1.5 midi2;
#X text 68 1012 Intro;
#X text 192 1010 Verse 1;
#X text 504 1010 Verse 2;
#X text 768 1003 Pre-Chorus 1;
#X text 1085 999 Pre-Chorus 2;
#X obj 60 302 metro 200000;
#X obj 132 412 % 4;
#X obj 88 471 sel 0 1 2 3;
#X obj 90 508 s sec0;
#X obj 650 48 r sec0;
#X obj 498 254 writesf~ 1;
#X msg 506 198 start;
#X msg 536 225 end;
#X msg 168 277 0;
#X obj 306 215 + 0;
#X msg 411 167 open chick_Mariage_D'Amour.wav;
#X obj 40 231 clone chick 7 50 50 0.5 300;
#X connect 0 0 1 0;
#X connect 0 1 2 0;
#X connect 0 2 3 0;
#X connect 1 0 13 0;
#X connect 2 0 13 1;
#X connect 5 0 4 0;
#X connect 5 0 4 1;
#X connect 5 0 249 0;
#X connect 6 0 5 1;
#X connect 7 0 16 0;
#X connect 7 1 16 1;
#X connect 7 2 16 2;
#X connect 8 0 5 0;
#X connect 9 0 244 0;
#X connect 11 0 245 0;
#X connect 12 0 11 0;
#X connect 12 0 23 0;
#X connect 13 0 7 0;
#X connect 14 0 15 0;
#X connect 15 0 17 0;
#X connect 15 1 22 0;
#X connect 15 2 17 2;
#X connect 16 0 255 0;
#X connect 17 0 255 0;
#X connect 21 0 15 0;
#X connect 22 0 253 0;
#X connect 23 0 12 1;
#X connect 30 0 47 0;
#X connect 47 0 48 0;
#X connect 48 0 49 0;
#X connect 49 0 50 0;
#X connect 50 0 51 0;
#X connect 51 0 52 0;
#X connect 52 0 53 0;
#X connect 53 0 54 0;
#X connect 54 0 55 0;
#X connect 55 0 56 0;
#X connect 56 0 57 0;
#X connect 57 0 58 0;
#X connect 58 0 59 0;
#X connect 59 0 60 0;
#X connect 60 0 61 0;
#X connect 61 0 62 0;
#X connect 62 0 63 0;
#X connect 63 0 64 0;
#X connect 64 0 91 0;
#X connect 65 0 92 0;
#X connect 66 0 67 0;
#X connect 67 0 68 0;
#X connect 68 0 69 0;
#X connect 69 0 70 0;
#X connect 70 0 71 0;
#X connect 71 0 72 0;
#X connect 72 0 73 0;
#X connect 73 0 74 0;
#X connect 74 0 75 0;
#X connect 75 0 76 0;
#X connect 76 0 77 0;
#X connect 77 0 78 0;
#X connect 78 0 79 0;
#X connect 79 0 80 0;
#X connect 80 0 81 0;
#X connect 81 0 82 0;
#X connect 82 0 83 0;
#X connect 83 0 84 0;
#X connect 84 0 85 0;
#X connect 85 0 86 0;
#X connect 86 0 87 0;
#X connect 87 0 88 0;
#X connect 88 0 89 0;
#X connect 89 0 90 0;
#X connect 90 0 93 0;
#X connect 91 0 65 0;
#X connect 92 0 66 0;
#X connect 93 0 94 0;
#X connect 94 0 95 0;
#X connect 95 0 96 0;
#X connect 96 0 97 0;
#X connect 97 0 98 0;
#X connect 98 0 99 0;
#X connect 99 0 100 0;
#X connect 100 0 101 0;
#X connect 101 0 187 0;
#X connect 102 0 103 0;
#X connect 103 0 104 0;
#X connect 104 0 105 0;
#X connect 105 0 106 0;
#X connect 106 0 107 0;
#X connect 107 0 108 0;
#X connect 108 0 109 0;
#X connect 109 0 110 0;
#X connect 110 0 111 0;
#X connect 111 0 112 0;
#X connect 112 0 113 0;
#X connect 113 0 114 0;
#X connect 114 0 115 0;
#X connect 115 0 116 0;
#X connect 116 0 117 0;
#X connect 117 0 118 0;
#X connect 118 0 119 0;
#X connect 119 0 120 0;
#X connect 120 0 121 0;
#X connect 121 0 122 0;
#X connect 122 0 123 0;
#X connect 123 0 124 0;
#X connect 124 0 125 0;
#X connect 125 0 126 0;
#X connect 126 0 127 0;
#X connect 127 0 129 0;
#X connect 128 0 130 0;
#X connect 129 0 128 0;
#X connect 130 0 131 0;
#X connect 131 0 132 0;
#X connect 132 0 133 0;
#X connect 133 0 134 0;
#X connect 134 0 135 0;
#X connect 135 0 136 0;
#X connect 136 0 137 0;
#X connect 137 0 138 0;
#X connect 138 0 139 0;
#X connect 139 0 140 0;
#X connect 140 0 141 0;
#X connect 141 0 142 0;
#X connect 142 0 143 0;
#X connect 143 0 144 0;
#X connect 144 0 145 0;
#X connect 145 0 146 0;
#X connect 146 0 147 0;
#X connect 147 0 148 0;
#X connect 148 0 149 0;
#X connect 149 0 150 0;
#X connect 150 0 151 0;
#X connect 151 0 152 0;
#X connect 152 0 153 0;
#X connect 153 0 154 0;
#X connect 154 0 155 0;
#X connect 155 0 156 0;
#X connect 156 0 157 0;
#X connect 157 0 158 0;
#X connect 158 0 159 0;
#X connect 159 0 160 0;
#X connect 160 0 161 0;
#X connect 161 0 162 0;
#X connect 162 0 163 0;
#X connect 163 0 164 0;
#X connect 164 0 165 0;
#X connect 165 0 166 0;
#X connect 166 0 167 0;
#X connect 167 0 168 0;
#X connect 168 0 169 0;
#X connect 169 0 170 0;
#X connect 170 0 171 0;
#X connect 171 0 172 0;
#X connect 172 0 173 0;
#X connect 173 0 174 0;
#X connect 174 0 175 0;
#X connect 175 0 176 0;
#X connect 176 0 177 0;
#X connect 177 0 178 0;
#X connect 178 0 179 0;
#X connect 179 0 180 0;
#X connect 180 0 181 0;
#X connect 181 0 182 0;
#X connect 182 0 183 0;
#X connect 183 0 184 0;
#X connect 184 0 185 0;
#X connect 185 0 186 0;
#X connect 186 0 208 0;
#X connect 187 0 188 0;
#X connect 188 0 189 0;
#X connect 189 0 190 0;
#X connect 190 0 191 0;
#X connect 191 0 192 0;
#X connect 192 0 193 0;
#X connect 193 0 194 0;
#X connect 194 0 195 0;
#X connect 195 0 196 0;
#X connect 196 0 197 0;
#X connect 197 0 198 0;
#X connect 198 0 199 0;
#X connect 199 0 200 0;
#X connect 200 0 201 0;
#X connect 201 0 202 0;
#X connect 202 0 203 0;
#X connect 203 0 204 0;
#X connect 204 0 205 0;
#X connect 205 0 206 0;
#X connect 206 0 207 0;
#X connect 208 0 209 0;
#X connect 209 0 210 0;
#X connect 210 0 211 0;
#X connect 211 0 212 0;
#X connect 212 0 213 0;
#X connect 213 0 214 0;
#X connect 214 0 215 0;
#X connect 215 0 216 0;
#X connect 216 0 217 0;
#X connect 217 0 218 0;
#X connect 218 0 219 0;
#X connect 219 0 220 0;
#X connect 220 0 221 0;
#X connect 221 0 222 0;
#X connect 222 0 223 0;
#X connect 223 0 224 0;
#X connect 224 0 225 0;
#X connect 225 0 226 0;
#X connect 226 0 227 0;
#X connect 227 0 228 0;
#X connect 228 0 229 0;
#X connect 229 0 230 0;
#X connect 230 0 231 0;
#X connect 231 0 232 0;
#X connect 232 0 233 0;
#X connect 233 0 234 0;
#X connect 234 0 235 0;
#X connect 235 0 236 0;
#X connect 236 0 237 0;
#X connect 237 0 238 0;
#X connect 244 0 10 0;
#X connect 244 0 12 0;
#X connect 244 0 47 0;
#X connect 245 0 246 0;
#X connect 246 0 247 0;
#X connect 248 0 102 0;
#X connect 250 0 249 0;
#X connect 251 0 249 0;
#X connect 252 0 12 1;
#X connect 253 0 17 1;
#X connect 254 0 249 0;
