#N canvas 1162 479 1440 786 12;
#X obj 58 0 notein;
#X floatatom 41 29 5 0 0 0 - - - 0;
#X floatatom 85 30 5 0 0 0 - - - 0;
#X floatatom 129 30 5 0 0 0 - - - 0;
#X obj 422 131 dac~;
#X obj 426 90 *~;
#X obj 512 22 vsl 15 128 0 1 0 0 empty empty empty 0 -9 0 10 #fcfcfc
#000000 #000000 0 1;
#X obj 41 129 poly 6;
#X obj 354 42 catch~ aux1;
#X obj 58 278 tgl 15 0 empty empty empty 17 7 0 10 #fcfcfc #000000
#000000 0 1;
#X obj 28 337 bng 15 250 50 0 empty empty empty 17 7 0 10 #fcfcfc #000000
#000000;
#X floatatom 91 370 5 0 0 0 - - - 0;
#X obj 87 342 int;
#X obj 41 92 pack 0 0;
#X obj 138 90 r midi1;
#X obj 187 142 poly 6;
#X obj 38 180 pack 0 0 0;
#X obj 183 179 pack 0 0 0;
#X text 161 303 2000：一個小節需要的時間, f 16;
#X text 323 309 在聽音樂之前記得拉這個，不然沒聲音
, f 20;
#X text 30 256 點擊這個toggle即可開始演奏;
#X obj 231 91 r midi2;
#X floatatom 307 186 5 0 0 0 - - - 0;
#X obj 124 343 + 1;
#X obj 50 1001 r lefthand;
#X obj 88 471 sel 0 1 2 3;
#X obj 132 412 % 4;
#X obj 89 517 s sec0;
#X obj 577 36 r sec0;
#X obj 60 302 metro 200000;
#X obj 577 71 press 79 0.5 midi1;
#X obj 577 95 press 88 0.5 midi1;
#X obj 577 119 press 86 0.5 midi1;
#X obj 577 143 press 84 0.5 midi1;
#X obj 577 167 press 79 2 midi1;
#X obj 577 253 press 79 0.5 midi1;
#X obj 577 277 press 88 0.5 midi1;
#X obj 577 301 press 86 0.5 midi1;
#X obj 577 328 press 84 0.5 midi1;
#X obj 577 352 press 81 2 midi1;
#X obj 732 71 press 81 0.5 midi1;
#X obj 732 95 press 89 0.5 midi1;
#X obj 732 119 press 88 0.5 midi1;
#X obj 732 143 press 86 0.5 midi1;
#X obj 732 167 press 83 2 midi1;
#X obj 732 253 press 91 0.5 midi1;
#X obj 732 277 press 91 0.5 midi1;
#X obj 732 301 press 89 0.5 midi1;
#X obj 732 328 press 86 0.5 midi1;
#X obj 732 352 press 88 2 midi1;
#X obj 883 70 press 79 0.5 midi1;
#X obj 883 94 press 88 0.5 midi1;
#X obj 883 118 press 86 0.5 midi1;
#X obj 883 142 press 84 0.5 midi1;
#X obj 883 166 press 79 2 midi1;
#X obj 883 252 press 79 0.5 midi1;
#X obj 883 276 press 88 0.5 midi1;
#X obj 883 300 press 86 0.5 midi1;
#X obj 883 327 press 84 0.5 midi1;
#X obj 1038 70 press 81 0.5 midi1;
#X obj 1038 94 press 89 0.5 midi1;
#X obj 1038 118 press 88 0.5 midi1;
#X obj 1038 142 press 86 0.5 midi1;
#X obj 883 375 press 81 0.5 midi1;
#X obj 883 351 press 81 1.5 midi1;
#X obj 1192 93 press 88 0.5 midi1;
#X obj 1038 168 press 91 0.5 midi1;
#X obj 1038 192 press 91 0.5 midi1;
#X obj 1038 216 press 91 0.5 midi1;
#X obj 1038 240 press 91 0.5 midi1;
#X obj 1037 267 press 93 0.5 midi1;
#X obj 1037 291 press 91 0.5 midi1;
#X obj 1037 315 press 89 0.5 midi1;
#X obj 1037 341 press 86 0.5 midi1;
#X obj 1038 366 press 84 1 midi1;
#X obj 1038 390 press 91 1 midi1;
#X obj 18 1065 press 48 0.5 midi2;
#X obj 18 1113 press 55 0.5 midi2;
#X obj 18 1161 press 60 0.5 midi2;
#X obj 18 1209 press 55 0.5 midi2;
#X obj 161 1065 press 48 0.5 midi2;
#X obj 161 1113 press 52 0.5 midi2;
#X obj 161 1161 press 53 0.5 midi2;
#X obj 161 1209 press 52 0.5 midi2;
#X obj 308 1064 press 50 0.5 midi2;
#X obj 308 1112 press 50 0.5 midi2;
#X obj 308 1160 press 55 0.5 midi2;
#X obj 308 1208 press 50 0.5 midi2;
#X obj 458 1112 press 55 0.5 midi2;
#X obj 458 1208 press 55 0.5 midi2;
#X obj 458 1064 press 55 0.5 midi2;
#X obj 458 1160 press 60 0.5 midi2;
#X obj 680 1064 press 48 0.5 midi2;
#X obj 680 1112 press 55 0.5 midi2;
#X obj 680 1160 press 60 0.5 midi2;
#X obj 680 1208 press 55 0.5 midi2;
#X obj 1120 1207 press 55 0.5 midi2;
#X obj 1120 1159 press 60 0.5 midi2;
#X obj 823 1064 press 60 0.5 midi2;
#X obj 823 1112 press 64 0.5 midi2;
#X obj 823 1160 press 65 0.5 midi2;
#X obj 823 1208 press 64 0.5 midi2;
#X obj 970 1063 press 65 0.5 midi2;
#X obj 970 1111 press 65 0.5 midi2;
#X obj 970 1159 press 62 0.5 midi2;
#X obj 970 1207 press 62 0.5 midi2;
#X obj 1120 1063 press 62 0.5 midi2;
#X obj 1120 1111 press 64 0.5 midi2;
#X obj 18 1089 press 72 0.5 midi2;
#X obj 18 1137 press 72 0.5 midi2;
#X obj 18 1185 press 72 0.5 midi2;
#X obj 18 1233 press 72 0.5 midi2;
#X obj 161 1089 press 72 0.5 midi2;
#X obj 161 1137 press 72 0.5 midi2;
#X obj 161 1185 press 69 0.5 midi2;
#X obj 161 1233 press 69 0.5 midi2;
#X obj 308 1088 press 69 0.5 midi2;
#X obj 308 1136 press 69 0.5 midi2;
#X obj 308 1184 press 71 0.5 midi2;
#X obj 308 1232 press 71 0.5 midi2;
#X obj 458 1088 press 71 0.5 midi2;
#X obj 458 1136 press 71 0.5 midi2;
#X obj 458 1184 press 72 0.5 midi2;
#X obj 458 1232 press 72 0.5 midi2;
#X obj 680 1088 press 72 0.5 midi2;
#X obj 680 1136 press 72 0.5 midi2;
#X obj 680 1184 press 72 0.5 midi2;
#X obj 680 1232 press 72 0.5 midi2;
#X obj 823 1088 press 72 0.5 midi2;
#X obj 823 1136 press 72 0.5 midi2;
#X obj 1192 69 press 88 0.5 midi1;
#X obj 1192 117 press 88 1 midi1;
#X obj 1193 180 press 88 0.5 midi1;
#X obj 1193 156 press 88 0.5 midi1;
#X obj 1193 204 press 88 1 midi1;
#X obj 1194 247 press 88 0.5 midi1;
#X obj 1194 271 press 91 0.5 midi1;
#X obj 1194 347 press 88 2 midi1;
#X obj 823 1184 press 77 0.5 midi2;
#X obj 823 1232 press 77 0.5 midi2;
#X obj 970 1087 press 77 0.5 midi2;
#X obj 970 1135 press 77 0.5 midi2;
#X obj 970 1183 press 79 0.5 midi2;
#X obj 970 1231 press 79 0.5 midi2;
#X obj 1120 1087 press 79 0.5 midi2;
#X obj 1120 1135 press 79 0.5 midi2;
#X obj 1120 1183 press 79 0.5 midi2;
#X obj 1120 1231 press 79 0.5 midi2;
#X obj 1343 68 press 89 0.5 midi1;
#X obj 1343 92 press 89 0.5 midi1;
#X obj 1343 116 press 89 0.75 midi1;
#X obj 1342 175 press 89 0.5 midi1;
#X obj 1342 150 press 89 0.25 midi1;
#X obj 1342 199 press 88 0.5 midi1;
#X obj 1341 227 press 88 0.5 midi1;
#X obj 1341 251 press 88 0.5 midi1;
#X obj 1341 285 press 88 0.5 midi1;
#X obj 1341 309 press 86 0.5 midi1;
#X obj 1341 333 press 86 0.5 midi1;
#X obj 1341 360 press 88 0.5 midi1;
#X obj 1341 384 press 86 1 midi1;
#X obj 1341 408 press 91 1 midi1;
#X obj 1500 91 press 88 0.5 midi1;
#X obj 1500 67 press 88 0.5 midi1;
#X obj 1500 115 press 88 1 midi1;
#X obj 1501 178 press 88 0.5 midi1;
#X obj 1501 154 press 88 0.5 midi1;
#X obj 1501 202 press 88 1 midi1;
#X obj 1502 245 press 88 0.5 midi1;
#X obj 1502 269 press 91 0.5 midi1;
#X obj 1502 345 press 88 2 midi1;
#X obj 1651 66 press 89 0.5 midi1;
#X obj 1651 90 press 89 0.5 midi1;
#X obj 1651 114 press 89 0.75 midi1;
#X obj 1650 172 press 89 0.5 midi1;
#X obj 1650 148 press 89 0.25 midi1;
#X obj 1650 196 press 88 0.5 midi1;
#X obj 1649 225 press 88 0.5 midi1;
#X obj 1649 249 press 88 0.5 midi1;
#X obj 1194 295 press 84 0.75 midi1;
#X obj 1194 323 press 86 0.25 midi1;
#X obj 1502 293 press 84 0.75 midi1;
#X obj 1502 321 press 86 0.25 midi1;
#X obj 1650 303 press 91 0.5 midi1;
#X obj 1650 327 press 91 0.5 midi1;
#X obj 1650 351 press 89 0.5 midi1;
#X obj 1650 378 press 86 0.5 midi1;
#X obj 1650 402 press 84 2 midi1;
#X obj 1321 1157 press 60 0.5 midi2;
#X obj 1321 1205 press 55 0.5 midi2;
#X obj 1321 1085 press 72 0.5 midi2;
#X obj 1321 1133 press 72 0.5 midi2;
#X obj 1321 1181 press 72 0.5 midi2;
#X obj 1321 1229 press 72 0.5 midi2;
#X obj 1463 1108 press 55 0.5 midi2;
#X obj 1463 1084 press 72 0.5 midi2;
#X obj 1463 1132 press 72 0.5 midi2;
#X obj 1463 1180 press 72 0.5 midi2;
#X obj 1463 1228 press 72 0.5 midi2;
#X obj 1603 1178 press 72 0.5 midi2;
#X obj 1603 1226 press 72 0.5 midi2;
#X obj 1894 1057 press 48 0.5 midi2;
#X obj 1894 1105 press 55 0.5 midi2;
#X obj 1894 1153 press 60 0.5 midi2;
#X obj 1894 1201 press 55 0.5 midi2;
#X obj 1894 1081 press 72 0.5 midi2;
#X obj 1894 1129 press 72 0.5 midi2;
#X obj 1894 1177 press 72 0.5 midi2;
#X obj 1894 1225 press 72 0.5 midi2;
#X obj 2036 1104 press 55 0.5 midi2;
#X obj 2036 1080 press 72 0.5 midi2;
#X obj 2036 1176 press 72 0.5 midi2;
#X obj 2036 1224 press 72 0.5 midi2;
#X obj 2318 1101 press 55 0.5 midi2;
#X obj 2318 1173 press 72 0.5 midi2;
#X obj 1321 1061 press 64 0.5 midi2;
#X obj 1321 1109 press 55 0.5 midi2;
#X obj 1463 1060 press 60 0.5 midi2;
#X obj 1463 1156 press 48 0.5 midi2;
#X obj 1463 1204 press 50 0.5 midi2;
#X obj 1603 1058 press 53 0.5 midi2;
#X obj 1603 1106 press 50 0.5 midi2;
#X obj 1745 1057 press 50 0.5 midi2;
#X obj 1745 1105 press 50 0.5 midi2;
#X obj 1745 1153 press 55 0.5 midi2;
#X obj 1745 1201 press 50 0.5 midi2;
#X obj 2036 1056 press 60 0.5 midi2;
#X obj 2036 1152 press 48 0.5 midi2;
#X obj 2036 1200 press 48 0.5 midi2;
#X obj 2176 1054 press 53 0.5 midi2;
#X obj 2176 1102 press 55 0.5 midi2;
#X obj 2176 1150 press 48 0.5 midi2;
#X obj 2176 1198 press 57 0.5 midi2;
#X obj 2318 1053 press 50 0.5 midi2;
#X obj 2318 1149 press 48 0.5 midi2;
#X obj 2318 1197 press 60 2 midi2;
#X obj 1603 1082 press 69 0.5 midi2;
#X obj 1603 1130 press 69 0.5 midi2;
#X obj 1603 1154 press 60 0.5 midi2;
#X obj 1603 1202 press 57 0.5 midi2;
#X obj 1745 1081 press 69 0.5 midi2;
#X obj 1745 1129 press 69 0.5 midi2;
#X obj 1745 1177 press 71 0.5 midi2;
#X obj 1745 1225 press 71 0.5 midi2;
#X obj 2036 1128 press 67 0.5 midi2;
#X obj 2176 1078 press 69 0.5 midi2;
#X obj 2176 1126 press 71 0.5 midi2;
#X obj 2176 1174 press 72 0.5 midi2;
#X obj 2176 1222 press 72 0.5 midi2;
#X obj 2318 1077 press 65 0.5 midi2;
#X obj 2318 1125 press 67 0.5 midi2;
#X msg 168 277 0;
#X obj 446 268 writesf~ 1;
#X msg 454 212 start;
#X msg 484 239 end;
#X obj 307 209 + 0;
#X msg 390 183 open pika_JingleBell.wav;
#X obj 40 231 clone pika2 7 50 50 0.5 300;
#X connect 0 0 1 0;
#X connect 0 1 2 0;
#X connect 0 2 3 0;
#X connect 1 0 13 0;
#X connect 2 0 13 1;
#X connect 5 0 4 0;
#X connect 5 0 4 1;
#X connect 5 0 252 0;
#X connect 6 0 5 1;
#X connect 7 0 16 0;
#X connect 7 1 16 1;
#X connect 7 2 16 2;
#X connect 8 0 5 0;
#X connect 9 0 29 0;
#X connect 11 0 26 0;
#X connect 12 0 11 0;
#X connect 12 0 23 0;
#X connect 13 0 7 0;
#X connect 14 0 15 0;
#X connect 15 0 17 0;
#X connect 15 1 22 0;
#X connect 15 2 17 2;
#X connect 16 0 257 0;
#X connect 17 0 257 0;
#X connect 21 0 15 0;
#X connect 22 0 255 0;
#X connect 23 0 12 1;
#X connect 24 0 76 0;
#X connect 25 0 27 0;
#X connect 25 1 27 0;
#X connect 25 2 27 0;
#X connect 25 3 27 0;
#X connect 25 4 27 0;
#X connect 26 0 25 0;
#X connect 28 0 30 0;
#X connect 29 0 10 0;
#X connect 29 0 12 0;
#X connect 29 0 76 0;
#X connect 30 0 31 0;
#X connect 31 0 32 0;
#X connect 32 0 33 0;
#X connect 33 0 34 0;
#X connect 34 0 35 0;
#X connect 35 0 36 0;
#X connect 36 0 37 0;
#X connect 37 0 38 0;
#X connect 38 0 39 0;
#X connect 39 0 40 0;
#X connect 40 0 41 0;
#X connect 41 0 42 0;
#X connect 42 0 43 0;
#X connect 43 0 44 0;
#X connect 44 0 45 0;
#X connect 45 0 46 0;
#X connect 46 0 47 0;
#X connect 47 0 48 0;
#X connect 48 0 49 0;
#X connect 49 0 50 0;
#X connect 50 0 51 0;
#X connect 51 0 52 0;
#X connect 52 0 53 0;
#X connect 53 0 54 0;
#X connect 54 0 55 0;
#X connect 55 0 56 0;
#X connect 56 0 57 0;
#X connect 57 0 58 0;
#X connect 58 0 64 0;
#X connect 59 0 60 0;
#X connect 60 0 61 0;
#X connect 61 0 62 0;
#X connect 62 0 66 0;
#X connect 63 0 59 0;
#X connect 64 0 63 0;
#X connect 65 0 131 0;
#X connect 66 0 67 0;
#X connect 67 0 68 0;
#X connect 68 0 69 0;
#X connect 69 0 70 0;
#X connect 70 0 71 0;
#X connect 71 0 72 0;
#X connect 72 0 73 0;
#X connect 73 0 74 0;
#X connect 74 0 75 0;
#X connect 75 0 130 0;
#X connect 76 0 108 0;
#X connect 77 0 109 0;
#X connect 78 0 110 0;
#X connect 79 0 111 0;
#X connect 80 0 112 0;
#X connect 81 0 113 0;
#X connect 82 0 114 0;
#X connect 83 0 115 0;
#X connect 84 0 116 0;
#X connect 85 0 117 0;
#X connect 86 0 118 0;
#X connect 87 0 119 0;
#X connect 88 0 121 0;
#X connect 89 0 123 0;
#X connect 90 0 120 0;
#X connect 91 0 122 0;
#X connect 92 0 124 0;
#X connect 93 0 125 0;
#X connect 94 0 126 0;
#X connect 95 0 127 0;
#X connect 96 0 147 0;
#X connect 97 0 146 0;
#X connect 98 0 128 0;
#X connect 99 0 129 0;
#X connect 100 0 138 0;
#X connect 101 0 139 0;
#X connect 102 0 140 0;
#X connect 103 0 141 0;
#X connect 104 0 142 0;
#X connect 105 0 143 0;
#X connect 106 0 144 0;
#X connect 107 0 145 0;
#X connect 108 0 77 0;
#X connect 109 0 78 0;
#X connect 110 0 79 0;
#X connect 111 0 80 0;
#X connect 112 0 81 0;
#X connect 113 0 82 0;
#X connect 114 0 83 0;
#X connect 115 0 84 0;
#X connect 116 0 85 0;
#X connect 117 0 86 0;
#X connect 118 0 87 0;
#X connect 119 0 90 0;
#X connect 120 0 88 0;
#X connect 121 0 91 0;
#X connect 122 0 89 0;
#X connect 123 0 92 0;
#X connect 124 0 93 0;
#X connect 125 0 94 0;
#X connect 126 0 95 0;
#X connect 127 0 98 0;
#X connect 128 0 99 0;
#X connect 129 0 100 0;
#X connect 130 0 65 0;
#X connect 131 0 133 0;
#X connect 132 0 134 0;
#X connect 133 0 132 0;
#X connect 134 0 135 0;
#X connect 135 0 136 0;
#X connect 136 0 179 0;
#X connect 137 0 148 0;
#X connect 138 0 101 0;
#X connect 139 0 102 0;
#X connect 140 0 103 0;
#X connect 141 0 104 0;
#X connect 142 0 105 0;
#X connect 143 0 106 0;
#X connect 144 0 107 0;
#X connect 145 0 97 0;
#X connect 146 0 96 0;
#X connect 147 0 215 0;
#X connect 148 0 149 0;
#X connect 149 0 150 0;
#X connect 150 0 152 0;
#X connect 151 0 153 0;
#X connect 152 0 151 0;
#X connect 153 0 154 0;
#X connect 154 0 155 0;
#X connect 155 0 156 0;
#X connect 156 0 157 0;
#X connect 157 0 158 0;
#X connect 158 0 159 0;
#X connect 159 0 160 0;
#X connect 160 0 161 0;
#X connect 161 0 163 0;
#X connect 162 0 164 0;
#X connect 163 0 162 0;
#X connect 164 0 166 0;
#X connect 165 0 167 0;
#X connect 166 0 165 0;
#X connect 167 0 168 0;
#X connect 168 0 169 0;
#X connect 169 0 181 0;
#X connect 170 0 171 0;
#X connect 171 0 172 0;
#X connect 172 0 173 0;
#X connect 173 0 175 0;
#X connect 174 0 176 0;
#X connect 175 0 174 0;
#X connect 176 0 177 0;
#X connect 177 0 178 0;
#X connect 178 0 183 0;
#X connect 179 0 180 0;
#X connect 180 0 137 0;
#X connect 181 0 182 0;
#X connect 182 0 170 0;
#X connect 183 0 184 0;
#X connect 184 0 185 0;
#X connect 185 0 186 0;
#X connect 186 0 187 0;
#X connect 188 0 192 0;
#X connect 189 0 193 0;
#X connect 190 0 216 0;
#X connect 191 0 188 0;
#X connect 192 0 189 0;
#X connect 193 0 217 0;
#X connect 194 0 196 0;
#X connect 195 0 194 0;
#X connect 196 0 218 0;
#X connect 197 0 219 0;
#X connect 198 0 220 0;
#X connect 199 0 239 0;
#X connect 200 0 222 0;
#X connect 201 0 205 0;
#X connect 202 0 206 0;
#X connect 203 0 207 0;
#X connect 204 0 208 0;
#X connect 205 0 202 0;
#X connect 206 0 203 0;
#X connect 207 0 204 0;
#X connect 208 0 226 0;
#X connect 209 0 244 0;
#X connect 210 0 209 0;
#X connect 211 0 228 0;
#X connect 212 0 229 0;
#X connect 213 0 250 0;
#X connect 214 0 235 0;
#X connect 215 0 190 0;
#X connect 216 0 191 0;
#X connect 217 0 195 0;
#X connect 218 0 197 0;
#X connect 219 0 198 0;
#X connect 220 0 236 0;
#X connect 221 0 237 0;
#X connect 222 0 240 0;
#X connect 223 0 241 0;
#X connect 224 0 242 0;
#X connect 225 0 243 0;
#X connect 226 0 210 0;
#X connect 227 0 211 0;
#X connect 228 0 212 0;
#X connect 229 0 245 0;
#X connect 230 0 246 0;
#X connect 231 0 247 0;
#X connect 232 0 248 0;
#X connect 233 0 249 0;
#X connect 234 0 214 0;
#X connect 236 0 221 0;
#X connect 237 0 238 0;
#X connect 238 0 199 0;
#X connect 239 0 200 0;
#X connect 240 0 223 0;
#X connect 241 0 224 0;
#X connect 242 0 225 0;
#X connect 243 0 201 0;
#X connect 244 0 227 0;
#X connect 245 0 230 0;
#X connect 246 0 231 0;
#X connect 247 0 232 0;
#X connect 248 0 233 0;
#X connect 249 0 213 0;
#X connect 250 0 234 0;
#X connect 251 0 12 1;
#X connect 253 0 252 0;
#X connect 254 0 252 0;
#X connect 255 0 17 1;
#X connect 256 0 252 0;
