#N canvas -10 0 3818 2013 12;
#X obj 58 0 notein;
#X floatatom 41 29 5 0 0 0 - - - 0;
#X floatatom 85 30 5 0 0 0 - - - 0;
#X floatatom 129 30 5 0 0 0 - - - 0;
#X obj 480 298 dac~;
#X obj 484 256 *~;
#X obj 602 147 vsl 15 128 0 1 0 0 empty empty empty 0 -9 0 10 #fcfcfc
#000000 #000000 0 1;
#X obj 41 129 poly 6;
#X obj 412 209 catch~ aux1;
#X obj 58 278 tgl 15 0 empty empty empty 17 7 0 10 #fcfcfc #000000
#000000 0 1;
#X obj 28 337 bng 15 250 50 0 empty empty empty 17 7 0 10 #fcfcfc #000000
#000000;
#X floatatom 91 370 5 0 0 0 - - - 0;
#X obj 87 342 int;
#X obj 41 92 pack 0 0;
#X obj 138 90 r midi1;
#X obj 187 142 poly 6;
#X obj 38 180 pack 0 0 0;
#X obj 183 179 pack 0 0 0;
#X msg 168 277 1;
#X text 144 303 2000：一個小節需要的時間;
#X text 565 313 在聽音樂之前記得拉這個，不然沒聲音
, f 20;
#X text 30 256 點擊這個toggle即可開始演奏;
#X obj 231 91 r midi2;
#X obj 18 1037 press 50 0.5 midi2;
#X obj 18 1064 press 57 0.5 midi2;
#X obj 18 1089 press 62 0.5 midi2;
#X obj 18 1115 press 66 0.5 midi2;
#X obj 19 1142 press 45 0.5 midi2;
#X obj 19 1169 press 52 0.5 midi2;
#X obj 19 1197 press 57 0.5 midi2;
#X obj 19 1224 press 61 0.5 midi2;
#X obj 161 1038 press 47 0.5 midi2;
#X obj 161 1065 press 54 0.5 midi2;
#X obj 161 1090 press 59 0.5 midi2;
#X obj 162 1143 press 42 0.5 midi2;
#X obj 162 1170 press 49 0.5 midi2;
#X obj 162 1198 press 54 0.5 midi2;
#X obj 161 1116 press 62 0.5 midi2;
#X obj 162 1225 press 57 0.5 midi2;
#X obj 301 1039 press 43 0.5 midi2;
#X obj 301 1066 press 50 0.5 midi2;
#X obj 301 1091 press 55 0.5 midi2;
#X obj 301 1117 press 59 0.5 midi2;
#X obj 302 1144 press 38 0.5 midi2;
#X obj 302 1171 press 45 0.5 midi2;
#X obj 302 1199 press 50 0.5 midi2;
#X obj 302 1226 press 54 0.5 midi2;
#X obj 443 1065 press 50 0.5 midi2;
#X obj 443 1090 press 55 0.5 midi2;
#X obj 443 1116 press 59 0.5 midi2;
#X obj 443 1038 press 43 0.5 midi2;
#X obj 444 1143 press 45 0.5 midi2;
#X obj 444 1170 press 52 0.5 midi2;
#X obj 444 1198 press 57 0.5 midi2;
#X obj 444 1225 press 61 0.5 midi2;
#X obj 800 46 press 78 2 midi1;
#X obj 800 73 press 76 2 midi1;
#X obj 800 98 press 74 2 midi1;
#X obj 800 123 press 73 2 midi1;
#X obj 801 151 press 71 2 midi1;
#X obj 801 178 press 69 2 midi1;
#X obj 801 206 press 71 2 midi1;
#X obj 801 233 press 73 2 midi1;
#X obj 1012 53 press 78 2 midi1;
#X obj 1012 80 press 76 2 midi1;
#X obj 1012 105 press 74 2 midi1;
#X obj 1012 130 press 73 2 midi1;
#X obj 1013 158 press 71 2 midi1;
#X obj 1013 185 press 69 2 midi1;
#X obj 1013 213 press 71 2 midi1;
#X obj 1013 240 press 73 2 midi1;
#X floatatom 307 186 5 0 0 0 - - - 0;
#X obj 60 302 metro 9600;
#X obj 124 343 + 1;
#X obj 90 508 s sec2;
#X obj 97 534 s sec3;
#X obj 110 561 s sec4;
#X obj 124 590 s sec5;
#X obj 137 619 s sec6;
#X obj 1139 53 press 74 2 midi1;
#X obj 1139 80 press 73 2 midi1;
#X obj 1139 105 press 71 2 midi1;
#X obj 1139 130 press 69 2 midi1;
#X obj 1140 158 press 67 2 midi1;
#X obj 1140 185 press 66 2 midi1;
#X obj 1140 213 press 67 2 midi1;
#X obj 1140 240 press 69 2 midi1;
#X obj 1269 53 press 69 2 midi1;
#X obj 1269 80 press 69 2 midi1;
#X obj 1269 105 press 66 2 midi1;
#X obj 1269 130 press 66 2 midi1;
#X obj 1270 158 press 62 2 midi1;
#X obj 1270 185 press 62 2 midi1;
#X obj 1270 213 press 62 2 midi1;
#X obj 1270 240 press 64 2 midi1;
#X obj 1014 15 r sec3;
#X obj 800 20 r sec2;
#X obj 1437 5 r sec4;
#X obj 1437 50 press 74 1 midi1;
#X obj 1437 77 press 78 1 midi1;
#X obj 1437 102 press 81 1 midi1;
#X obj 1437 127 press 79 1 midi1;
#X obj 1438 155 press 78 1 midi1;
#X obj 1438 182 press 74 1 midi1;
#X obj 1438 210 press 78 1.5 midi1;
#X obj 1438 237 press 76 0.5 midi1;
#X obj 1585 49 press 74 1 midi1;
#X obj 1585 76 press 71 1 midi1;
#X obj 1585 101 press 74 1 midi1;
#X obj 1585 126 press 78 1 midi1;
#X obj 1586 154 press 79 1 midi1;
#X obj 1586 181 press 83 1 midi1;
#X obj 1586 209 press 81 1.5 midi1;
#X obj 1586 236 press 79 0.5 midi1;
#X obj 1737 79 press 78 1 midi1;
#X obj 1738 157 press 78 1 midi1;
#X obj 1738 212 press 78 1.5 midi1;
#X obj 1738 239 press 76 0.5 midi1;
#X obj 2010 54 press 74 1 midi1;
#X obj 2010 81 press 71 1 midi1;
#X obj 2010 106 press 74 1 midi1;
#X obj 2010 131 press 78 1 midi1;
#X obj 2011 159 press 79 1 midi1;
#X obj 2011 186 press 83 1 midi1;
#X obj 2011 214 press 81 1.5 midi1;
#X obj 2011 241 press 79 0.5 midi1;
#X obj 1737 7 r sec5;
#X obj 1737 52 press 78 1 midi1;
#X obj 1737 104 press 81 1 midi1;
#X obj 1737 129 press 79 1 midi1;
#X obj 1738 184 press 74 1 midi1;
#X obj 1860 51 press 74 1 midi1;
#X obj 1862 104 press 76 1 midi1;
#X obj 1866 158 press 74 1 midi1;
#X obj 1873 213 press 73 1.5 midi1;
#X obj 2150 216 press 73 1.5 midi1;
#X obj 2137 55 press 71 1 midi1;
#X obj 2139 105 press 69 1 midi1;
#X obj 2143 162 press 71 1 midi1;
#X obj 2296 13 r sec6;
#X obj 2296 43 press 74 0.5 midi1;
#X obj 2296 67 press 73 0.5 midi1;
#X obj 2296 91 press 74 0.5 midi1;
#X obj 2296 115 press 69 0.5 midi1;
#X obj 2296 139 press 69 1 midi1;
#X obj 2296 163 press 73 1 midi1;
#X obj 2296 187 press 74 1 midi1;
#X obj 2296 211 press 78 1 midi1;
#X obj 2296 235 press 81 1.5 midi1;
#X obj 2296 259 press 83 0.5 midi1;
#X obj 2478 45 press 79 0.5 midi1;
#X obj 2478 69 press 78 0.5 midi1;
#X obj 2478 93 press 76 0.5 midi1;
#X obj 2478 117 press 79 0.5 midi1;
#X obj 2478 141 press 78 0.5 midi1;
#X obj 2478 165 press 76 0.5 midi1;
#X obj 2478 189 press 74 0.5 midi1;
#X obj 2478 213 press 73 0.5 midi1;
#X obj 2478 237 press 71 0.5 midi1;
#X obj 2478 261 press 69 0.5 midi1;
#X obj 2478 285 press 74 1 midi1;
#X obj 2478 309 press 74 1.5 midi1;
#X obj 2478 333 press 73 0.5 midi1;
#X obj 148 650 s sec7;
#X obj 159 677 s sec8;
#X obj 84 968 r lefthand;
#X obj 2357 12 r sec7;
#X obj 2634 14 r sec8;
#X obj 2634 38 press 74 0.5 midi1;
#X obj 2634 62 press 73 0.5 midi1;
#X obj 2634 86 press 74 0.5 midi1;
#X obj 2634 110 press 69 0.5 midi1;
#X obj 2634 134 press 73 0.5 midi1;
#X obj 2634 158 press 69 0.5 midi1;
#X obj 2634 182 press 76 0.5 midi1;
#X obj 2634 206 press 78 0.5 midi1;
#X obj 2634 230 press 74 0.5 midi1;
#X obj 2634 254 press 74 0.5 midi1;
#X obj 2634 278 press 73 0.5 midi1;
#X obj 2634 302 press 71 0.5 midi1;
#X obj 2634 326 press 73 0.5 midi1;
#X obj 2634 350 press 78 0.5 midi1;
#X obj 2634 374 press 81 0.5 midi1;
#X obj 2634 398 press 83 0.5 midi1;
#X obj 2781 110 press 79 0.5 midi1;
#X obj 2781 158 press 76 0.5 midi1;
#X obj 2781 38 press 79 0.5 midi1;
#X obj 2781 62 press 78 0.5 midi1;
#X obj 2781 86 press 76 0.5 midi1;
#X obj 2782 135 press 78 0.5 midi1;
#X obj 2781 182 press 74 0.5 midi1;
#X obj 2781 206 press 73 0.5 midi1;
#X obj 2781 230 press 71 0.5 midi1;
#X obj 2781 254 press 69 0.5 midi1;
#X obj 2782 278 press 67 0.5 midi1;
#X obj 2781 302 press 66 0.5 midi1;
#X obj 2781 326 press 64 0.5 midi1;
#X obj 2781 350 press 67 0.5 midi1;
#X obj 2781 374 press 66 0.5 midi1;
#X obj 2781 398 press 64 0.5 midi1;
#X obj 2938 39 press 74 0.5 midi1;
#X obj 2938 15 r sec9;
#X obj 2938 63 press 76 0.5 midi1;
#X obj 2938 87 press 78 0.5 midi1;
#X obj 2938 111 press 79 0.5 midi1;
#X obj 2938 135 press 81 0.5 midi1;
#X obj 2938 159 press 76 0.5 midi1;
#X obj 2938 183 press 81 0.5 midi1;
#X obj 2938 207 press 79 0.5 midi1;
#X obj 2938 231 press 78 0.5 midi1;
#X obj 2938 255 press 83 0.5 midi1;
#X obj 2938 279 press 81 0.5 midi1;
#X obj 2938 303 press 79 0.5 midi1;
#X obj 2938 327 press 81 0.5 midi1;
#X obj 2938 351 press 79 0.5 midi1;
#X obj 2938 375 press 78 0.5 midi1;
#X obj 2938 399 press 76 0.5 midi1;
#X obj 3083 38 press 74 0.5 midi1;
#X obj 3083 62 press 71 0.5 midi1;
#X obj 3083 86 press 71 0.5 midi1;
#X obj 3083 110 press 73 0.5 midi1;
#X obj 3083 134 press 74 0.5 midi1;
#X obj 3083 158 press 78 0.25 midi1;
#X obj 3083 182 press 76 0.25 midi1;
#X obj 3083 206 press 74 0.5 midi1;
#X obj 3083 230 press 78 0.5 midi1;
#X obj 3083 254 press 79 0.5 midi1;
#X obj 3083 278 press 74 0.25 midi1;
#X obj 3083 302 press 73 0.25 midi1;
#X obj 3083 326 press 71 0.5 midi1;
#X obj 3083 350 press 73 0.5 midi1;
#X obj 3083 374 press 74 1.5 midi1;
#X obj 3083 398 press 73 0.5 midi1;
#X obj 3255 16 r sec10;
#X obj 3255 40 press 81 0.5 midi1;
#X obj 3255 64 press 78 0.25 midi1;
#X obj 3255 88 press 79 0.25 midi1;
#X obj 3255 112 press 81 0.5 midi1;
#X obj 3254 137 press 78 0.25 midi1;
#X obj 3254 161 press 79 0.25 midi1;
#X obj 3254 233 press 71 0.25 midi1;
#X obj 3254 209 press 69 0.25 midi1;
#X obj 3254 257 press 73 0.25 midi1;
#X obj 3254 281 press 74 0.25 midi1;
#X obj 3254 305 press 76 0.25 midi1;
#X obj 3254 329 press 78 0.25 midi1;
#X obj 3254 353 press 79 0.25 midi1;
#X obj 3411 41 press 78 0.5 midi1;
#X obj 3411 65 press 74 0.25 midi1;
#X obj 3411 89 press 76 0.25 midi1;
#X obj 3411 113 press 78 0.5 midi1;
#X obj 3411 137 press 66 0.25 midi1;
#X obj 3411 161 press 67 0.25 midi1;
#X obj 3411 185 press 69 0.25 midi1;
#X obj 3411 209 press 71 0.25 midi1;
#X obj 3411 233 press 69 0.25 midi1;
#X obj 3411 257 press 67 0.25 midi1;
#X obj 3411 281 press 69 0.25 midi1;
#X obj 3411 305 press 66 0.25 midi1;
#X obj 3411 329 press 67 0.25 midi1;
#X obj 3411 353 press 69 0.25 midi1;
#X obj 3560 65 press 71 0.25 midi1;
#X obj 3560 89 press 69 0.25 midi1;
#X obj 3560 137 press 66 0.25 midi1;
#X obj 3560 161;
#X obj 3560 113 press 67 0.5 midi1;
#X obj 3560 161 press 64 0.25 midi1;
#X obj 3560 185 press 66 0.25 midi1;
#X obj 3560 209 press 64 0.25 midi1;
#X obj 3560 233 press 62 0.25 midi1;
#X obj 3560 257 press 64 0.25 midi1;
#X obj 3560 281 press 66 0.25 midi1;
#X obj 3560 305 press 67 0.25 midi1;
#X obj 3560 329 press 69 0.25 midi1;
#X obj 3560 353 press 71 0.25 midi1;
#X obj 3560 41 press 67 0.5 midi1;
#X obj 3716 65 press 71 0.25 midi1;
#X obj 3716 89 press 69 0.25 midi1;
#X obj 3716 113 press 71 0.5 midi1;
#X obj 3716 137 press 73 0.25 midi1;
#X obj 3716 161 press 74 0.25 midi1;
#X obj 3716 185 press 69 0.25 midi1;
#X obj 3716 209 press 71 0.25 midi1;
#X obj 3716 233 press 73 0.25 midi1;
#X obj 3716 257 press 74 0.25 midi1;
#X obj 3716 281 press 76 0.25 midi1;
#X obj 3716 305 press 78 0.25 midi1;
#X obj 3716 329 press 79 0.25 midi1;
#X obj 3716 353 press 81 0.25 midi1;
#X obj 3323 16 r sec11;
#X obj 3254 184 press 81 0.25 midi1;
#X obj 3716 41 press 67 0.5 midi1;
#X obj 3902 21 r sec12;
#X obj 3902 69 press 74 0.25 midi1;
#X obj 3902 93 press 76 0.25 midi1;
#X obj 3902 141;
#X obj 3902 117 press 78 0.5 midi1;
#X obj 3902 141 press 76 0.25 midi1;
#X obj 3902 165 press 74 0.25 midi1;
#X obj 3902 189 press 76 0.25 midi1;
#X obj 3902 213 press 73 0.25 midi1;
#X obj 3902 237 press 74 0.25 midi1;
#X obj 3902 261 press 76 0.25 midi1;
#X obj 3902 285 press 78 0.25 midi1;
#X obj 3902 309 press 76 0.25 midi1;
#X obj 3902 333 press 74 0.25 midi1;
#X obj 3902 357 press 73 0.25 midi1;
#X obj 4057 43 press 74 0.5 midi1;
#X obj 4057 67 press 71 0.25 midi1;
#X obj 4057 91 press 73 0.25 midi1;
#X obj 4057 115 press 74 0.5 midi1;
#X obj 4057 139 press 74 0.25 midi1;
#X obj 4057 163 press 76 0.25 midi1;
#X obj 4057 187 press 78 0.25 midi1;
#X obj 4057 211 press 79 0.25 midi1;
#X obj 4057 235 press 78 0.25 midi1;
#X obj 4057 259 press 76 0.25 midi1;
#X obj 4057 283 press 78 0.25 midi1;
#X obj 4057 307 press 74 0.25 midi1;
#X obj 4057 331 press 73 0.25 midi1;
#X obj 4057 355 press 74 0.25 midi1;
#X obj 4212 42 press 71 0.5 midi1;
#X obj 4212 66 press 74 0.25 midi1;
#X obj 4212 90 press 73 0.25 midi1;
#X obj 4212 138;
#X obj 4212 114 press 71 0.5 midi1;
#X obj 4212 138 press 69 0.25 midi1;
#X obj 4212 162 press 67 0.25 midi1;
#X obj 4212 235 press 66 0.25 midi1;
#X obj 4212 259 press 67 0.25 midi1;
#X obj 4212 283 press 69 0.25 midi1;
#X obj 4212 307 press 71 0.25 midi1;
#X obj 4212 331 press 73 0.25 midi1;
#X obj 4212 355 press 74 0.25 midi1;
#X obj 4212 187 press 69 0.25 midi1;
#X obj 4212 211 press 67 0.25 midi1;
#X obj 4371 65 press 74 0.25 midi1;
#X obj 4371 89 press 73 0.25 midi1;
#X obj 4371 113 press 74 0.5 midi1;
#X obj 4371 41 press 71 0.5 midi1;
#X obj 4371 137 press 73 0.25 midi1;
#X obj 4371 161 press 71 0.25 midi1;
#X obj 4371 185 press 73 0.25 midi1;
#X obj 4371 209 press 69 0.25 midi1;
#X obj 4371 233 press 71 0.25 midi1;
#X obj 4371 257 press 73 0.25 midi1;
#X obj 4371 281 press 74 0.25 midi1;
#X obj 4371 305 press 76 0.25 midi1;
#X obj 4371 329 press 78 0.25 midi1;
#X obj 4371 353 press 79 0.25 midi1;
#X obj 3902 45 press 78 0.5 midi1;
#X obj 4545 18 r sec13;
#X obj 4545 42 press 81 0.5 midi1;
#X obj 4545 66 press 74 0.5 midi1;
#X obj 4545 90 press 78 0.5 midi1;
#X obj 4545 114 press 81 0.5 midi1;
#X obj 4545 138 press 81 0.5 midi1;
#X obj 4545 162 press 83 0.5 midi1;
#X obj 4545 186 press 81 0.5 midi1;
#X obj 4545 210 press 79 0.5 midi1;
#X obj 4545 234 press 78 1.5 midi1;
#X obj 4545 258 press 78 0.5 midi1;
#X obj 4545 282 press 78 0.5 midi1;
#X obj 4545 306 press 79 0.5 midi1;
#X obj 4545 330 press 78 0.5 midi1;
#X obj 4545 354 press 76 0.5 midi1;
#X obj 4696 40 press 74 0.5 midi1;
#X obj 4696 64 press 72 0.5 midi1;
#X obj 4696 88 press 71 0.5 midi1;
#X obj 4696 112 press 72 0.5 midi1;
#X obj 4696 136 press 74 1 midi1;
#X obj 4696 160 press 69 0.75 midi1;
#X obj 4696 184 press 69 0.25 midi1;
#X obj 4696 208 press 74 0.5 midi1;
#X obj 4696 232 press 72 0.5 midi1;
#X obj 4696 256 press 71 0.5 midi1;
#X obj 4696 280 press 72 0.5 midi1;
#X obj 4696 304 press 74 1 midi1;
#X obj 4696 328 press 73 1 midi1;
#X obj 4854 20 r sec14;
#X obj 4854 44 press 81 1.5 midi1;
#X obj 4854 68 press 81 0.5 midi1;
#X obj 4854 92 press 81 0.5 midi1;
#X obj 4854 116 press 83 0.5 midi1;
#X obj 4854 140 press 81 0.5 midi1;
#X obj 4854 164 press 79 0.5 midi1;
#X obj 4854 188 press 78 1.5 midi1;
#X obj 4854 212 press 78 0.5 midi1;
#X obj 4854 236 press 78 0.5 midi1;
#X obj 4854 260 press 79 0.5 midi1;
#X obj 4854 284 press 78 0.5 midi1;
#X obj 4854 308 press 76 0.5 midi1;
#X obj 4997 43 press 74 0.5 midi1;
#X obj 4997 67 press 72 0.5 midi1;
#X obj 4997 91 press 71 0.5 midi1;
#X obj 4997 115 press 72 0.5 midi1;
#X obj 4997 139 press 74 1 midi1;
#X obj 4997 163 press 69 0.75 midi1;
#X obj 4997 187 press 69 0.25 midi1;
#X obj 4997 211 press 74 0.5 midi1;
#X obj 4997 235 press 72 0.5 midi1;
#X obj 4997 259 press 71 0.5 midi1;
#X obj 4997 283 press 72 0.5 midi1;
#X obj 4997 307 press 74 1.5 midi1;
#X obj 4997 331 press 73 0.5 midi1;
#X obj 5210 19 r sec15;
#X obj 5210 43 press 78 0.5 midi1;
#X obj 5210 67 press 66 0.5 midi1;
#X obj 5210 91 press 67 0.5 midi1;
#X obj 5210 115 press 66 0.5 midi1;
#X obj 5210 139 press 64 0.5 midi1;
#X obj 5210 163 press 76 0.5 midi1;
#X obj 5210 187 press 78 0.5 midi1;
#X obj 5210 211 press 76 0.5 midi1;
#X obj 5210 235 press 74 0.5 midi1;
#X obj 5210 259 press 66 0.5 midi1;
#X obj 5210 283 press 74 0.5 midi1;
#X obj 5210 307 press 71 0.5 midi1;
#X obj 5210 331 press 69 0.5 midi1;
#X obj 5210 355 press 69 0.5 midi1;
#X obj 5210 379 press 67 0.5 midi1;
#X obj 5210 403 press 69 0.5 midi1;
#X obj 5374 43 press 71 0.5 midi1;
#X obj 5374 67 press 71 0.5 midi1;
#X obj 5374 91 press 73 0.5 midi1;
#X obj 5374 115 press 71 0.5 midi1;
#X obj 5374 139 press 69 0.5 midi1;
#X obj 5374 163 press 69 0.5 midi1;
#X obj 5374 211 press 69 0.5 midi1;
#X obj 5374 235 press 71 0.5 midi1;
#X obj 5374 259 press 71 0.5 midi1;
#X obj 5374 283 press 69 0.5 midi1;
#X obj 5374 307 press 71 0.5 midi1;
#X obj 5374 331 press 73 0.5 midi1;
#X obj 5374 355 press 73 0.5 midi1;
#X obj 5374 379 press 71 0.5 midi1;
#X obj 5374 403 press 73 0.5 midi1;
#X obj 5553 16 r sec16;
#X obj 5553 40 press 74 0.5 midi1;
#X obj 5553 64 press 74 0.5 midi1;
#X obj 5553 88 press 76 0.5 midi1;
#X obj 5553 112 press 74 0.5 midi1;
#X obj 5553 136 press 73 0.5 midi1;
#X obj 5553 160 press 73 0.5 midi1;
#X obj 5553 184 press 74 0.5 midi1;
#X obj 5553 208 press 73 0.5 midi1;
#X obj 5553 232 press 71 0.5 midi1;
#X obj 5553 256 press 71 0.5 midi1;
#X obj 5553 280 press 69 0.5 midi1;
#X obj 5553 304 press 71 0.5 midi1;
#X obj 5553 328 press 73 0.5 midi1;
#X obj 5553 352 press 73 0.5 midi1;
#X obj 5553 376 press 78 0.5 midi1;
#X obj 5553 400 press 76 0.5 midi1;
#X obj 5708 39 press 74 0.5 midi1;
#X obj 5708 63 press 74 0.5 midi1;
#X obj 5708 87 press 76 0.5 midi1;
#X obj 5708 111 press 79 0.5 midi1;
#X obj 5708 135 press 78 0.5 midi1;
#X obj 5708 159 press 66 0.5 midi1;
#X obj 5708 183 press 69 0.5 midi1;
#X obj 5708 207 press 78 0.5 midi1;
#X obj 5708 231 press 78 0.5 midi1;
#X obj 5708 255 press 79 0.5 midi1;
#X obj 5708 279 press 78 0.5 midi1;
#X obj 5708 303 press 79 0.5 midi1;
#X obj 5708 327 press 76 0.5 midi1;
#X obj 5708 351 press 69 0.5 midi1;
#X obj 5708 375 press 76 0.5 midi1;
#X obj 5708 399 press 73 0.5 midi1;
#X obj 1995 450 r sec18;
#X obj 2133 604 press 69 0.5 midi1;
#X obj 1995 479 press 78 0.5 midi1;
#X obj 2133 479 press 74 0.5 midi1;
#X obj 1995 504 press 74 0.25 midi1;
#X obj 1994 528 press 73 0.25 midi1;
#X obj 1995 552 press 74 0.5 midi1;
#X obj 1995 578 press 69 0.5 midi1;
#X obj 1995 603 press 76 0.5 midi1;
#X obj 1995 627 press 69 0.25 midi1;
#X obj 1995 651 press 71 0.25 midi1;
#X obj 1995 675 press 73 0.5 midi1;
#X obj 1995 699 press 69 0.5 midi1;
#X obj 2295 505 press 74 0.25 midi1;
#X obj 2295 480 press 74 0.5 midi1;
#X obj 2433 480 press 71 0.5 midi1;
#X obj 2294 529 press 76 0.25 midi1;
#X obj 2295 553 press 78 0.5 midi1;
#X obj 2436 553 press 74 0.5 midi1;
#X obj 2295 579 press 74 0.5 midi1;
#X obj 2295 604 press 78 0.5 midi1;
#X obj 2433 605 press 73 0.5 midi1;
#X obj 2295 628 press 78 0.25 midi1;
#X obj 2295 652 press 76 0.25 midi1;
#X obj 2295 676 press 74 0.5 midi1;
#X obj 2295 700 press 73 0.5 midi1;
#X obj 2593 630 press 78 0.25 midi1;
#X obj 2593 654 press 76 0.25 midi1;
#X obj 2593 678 press 74 0.5 midi1;
#X obj 2593 482 press 71 0.5 midi1;
#X obj 2731 482 press 67 0.5 midi1;
#X obj 2593 507 press 71 0.25 midi1;
#X obj 2592 531 press 69 0.25 midi1;
#X obj 2593 555 press 71 0.5 midi1;
#X obj 2593 581 press 73 0.5 midi1;
#X obj 2593 606 press 74 0.5 midi1;
#X obj 2731 607 press 69 0.5 midi1;
#X obj 2593 702 press 78 0.5 midi1;
#X obj 2897 583 press 73 0.5 midi1;
#X obj 2897 484 press 79 0.5 midi1;
#X obj 3035 484 press 71 0.5 midi1;
#X obj 2897 509 press 74 0.25 midi1;
#X obj 2896 533 press 73 0.25 midi1;
#X obj 2897 557 press 71 0.5 midi1;
#X obj 2897 608 press 76 1 midi1;
#X obj 3053 594 press 74 1 midi1;
#X obj 3053 616 press 69 1 midi1;
#X obj 2897 632 press 73 1 midi1;
#X obj 3268 447 r sec19;
#X obj 3412 483 press 69 1.5 midi1;
#X obj 3268 495 press 78 0.5 midi1;
#X obj 3412 460 press 74 1.5 midi1;
#X obj 3268 471 press 78 1.5 midi1;
#X obj 3268 519 press 78 0.5 midi1;
#X obj 3268 543 press 79 0.5 midi1;
#X obj 3268 567 press 78 0.5 midi1;
#X obj 3268 591 press 76 0.5 midi1;
#X obj 3268 615 press 74 1.5 midi1;
#X obj 3268 639 press 74 0.5 midi1;
#X obj 3268 663 press 74 0.5 midi1;
#X obj 3268 687 press 76 0.5 midi1;
#X obj 3268 711 press 74 0.5 midi1;
#X obj 3268 735 press 73 0.5 midi1;
#X obj 3593 461 press 71 2 midi1;
#X obj 3715 462 press 67 0.5 midi1;
#X obj 3593 485 press 74 1 midi1;
#X obj 3593 509 press 69 1 midi1;
#X obj 3594 537 press 71 2 midi1;
#X obj 3716 538 press 67 0.5 midi1;
#X obj 3594 561 press 69 1.5 midi1;
#X obj 3594 585 press 73 0.5 midi1;
#X obj 794 453 r sec17;
#X obj 794 481 press 78 0.5 midi1;
#X obj 934 480 press 74 0.5 midi1;
#X obj 794 553 press 78 0.5 midi1;
#X obj 794 578 press 74 0.5 midi1;
#X obj 794 505 press 74 0.25 midi1;
#X obj 794 529 press 76 0.25 midi1;
#X obj 794 604 press 76 0.5 midi1;
#X obj 931 604 press 73 0.5 midi1;
#X obj 794 628 press 73 0.25 midi1;
#X obj 794 652 press 74 0.25 midi1;
#X obj 794 676 press 76 0.5 midi1;
#X obj 794 700 press 73 0.5 midi1;
#X obj 1088 480 press 74 0.5 midi1;
#X obj 1226 479 press 71 0.5 midi1;
#X obj 1088 504 press 71 0.25 midi1;
#X obj 1087 528 press 73 0.25 midi1;
#X obj 1088 552 press 74 0.5 midi1;
#X obj 1088 578 press 71 0.5 midi1;
#X obj 1088 603 press 73 0.5 midi1;
#X obj 1226 604 press 69 0.5 midi1;
#X obj 1088 627 press 81 0.25 midi1;
#X obj 1088 651 press 79 0.25 midi1;
#X obj 1088 675 press 78 0.5 midi1;
#X obj 1088 699 press 76 0.5 midi1;
#X obj 1379 480 press 74 0.5 midi1;
#X obj 1517 479 press 71 0.5 midi1;
#X obj 1517 604 press 69 0.5 midi1;
#X obj 1379 675 press 78 0.5 midi1;
#X obj 1379 504 press 79 0.25 midi1;
#X obj 1378 528 press 78 0.25 midi1;
#X obj 1379 552 press 76 0.5 midi1;
#X obj 1379 578 press 79 0.5 midi1;
#X obj 1379 603 press 78 0.5 midi1;
#X obj 1379 627 press 74 0.25 midi1;
#X obj 1379 651 press 76 0.25 midi1;
#X obj 1379 699 press 81 0.5 midi1;
#X obj 1677 676 press 78 0.5 midi1;
#X obj 1677 481 press 83 0.5 midi1;
#X obj 1815 480 press 79 0.5 midi1;
#X obj 1677 505 press 83 0.25 midi1;
#X obj 1676 529 press 81 0.25 midi1;
#X obj 1677 553 press 79 0.5 midi1;
#X obj 1677 579 press 83 0.5 midi1;
#X obj 1677 604 press 76 0.5 midi1;
#X obj 1815 605 press 73 0.5 midi1;
#X obj 1677 628 press 81 0.25 midi1;
#X obj 1677 652 press 79 0.25 midi1;
#X obj 1677 700 press 76 0.5 midi1;
#X obj 3909 447 r sec20;
#X obj 4053 470 press 74 1.5 midi1;
#X obj 4053 447 press 78 1.5 midi1;
#X obj 3909 471 press 81 1.5 midi1;
#X obj 3909 495 press 81 0.5 midi1;
#X obj 3909 519 press 81 0.5 midi1;
#X obj 3909 543 press 83 0.5 midi1;
#X obj 3909 567 press 81 0.5 midi1;
#X obj 3909 591 press 79 0.5 midi1;
#X obj 4053 494 press 78 0.5 midi1;
#X obj 4053 518 press 78 0.5 midi1;
#X obj 4053 542 press 79 0.5 midi1;
#X obj 4053 566 press 78 0.5 midi1;
#X obj 4053 590 press 76 0.5 midi1;
#X obj 3908 639 press 78 0.5 midi1;
#X obj 3908 663 press 78 0.5 midi1;
#X obj 3908 687 press 79 0.5 midi1;
#X obj 3908 711 press 78 0.5 midi1;
#X obj 3908 735 press 76 0.5 midi1;
#X obj 3909 615 press 78 1.5 midi1;
#X obj 4053 614 press 74 1.5 midi1;
#X obj 4053 638 press 74 0.5 midi1;
#X obj 4053 662 press 74 0.5 midi1;
#X obj 4053 686 press 76 0.5 midi1;
#X obj 4053 710 press 74 0.5 midi1;
#X obj 4053 734 press 73 0.5 midi1;
#X obj 4223 470 press 74 0.5 midi1;
#X obj 4376 470 press 71 0.5 midi1;
#X obj 4223 494 press 72 0.5 midi1;
#X obj 4223 518 press 71 0.5 midi1;
#X obj 4223 542 press 72 0.5 midi1;
#X obj 4223 566 press 74 0.5 midi1;
#X obj 4223 590 press 69 0.75 midi1;
#X obj 4223 614 press 66 0.25 midi1;
#X obj 4223 638 press 74 0.5 midi1;
#X obj 4223 662 press 72 0.5 midi1;
#X obj 4223 686 press 71 0.5 midi1;
#X obj 4223 710 press 72 0.5 midi1;
#X obj 4223 734 press 73 1.5 midi1;
#X obj 4371 734 press 69 1.5 midi1;
#X obj 4223 758 press 73 0.5 midi1;
#X obj 4558 438 r sec21;
#X obj 4697 464 press 66 1.5 midi1;
#X obj 4696 443 press 69 1.5 midi1;
#X obj 4558 463 press 74 1.5 midi1;
#X obj 4558 487 press 69 0.5 midi1;
#X obj 4558 511 press 69 0.5 midi1;
#X obj 4558 535 press 71 0.5 midi1;
#X obj 4558 559 press 69 0.5 midi1;
#X obj 4558 583 press 67 0.5 midi1;
#X obj 4558 607 press 66 1.5 midi1;
#X obj 4558 631 press 66 0.5 midi1;
#X obj 4558 655 press 66 0.5 midi1;
#X obj 4558 679 press 67 0.5 midi1;
#X obj 4558 703 press 66 0.5 midi1;
#X obj 4558 727 press 64 0.5 midi1;
#X obj 4848 464 press 74 0.5 midi1;
#X obj 4848 488 press 72 0.5 midi1;
#X obj 4848 512 press 71 0.5 midi1;
#X obj 4848 536 press 72 0.5 midi1;
#X obj 4848 560 press 74 1 midi1;
#X obj 4848 584 press 69 0.75 midi1;
#X obj 4848 608 press 69 0.25 midi1;
#X obj 4848 632 press 74 0.5 midi1;
#X obj 4848 656 press 72 0.5 midi1;
#X obj 4848 680 press 71 0.5 midi1;
#X obj 4848 704 press 72 0.5 midi1;
#X obj 4848 728 press 74 1 midi1;
#X obj 4848 752 press 73 1 midi1;
#X obj 798 779 r sec22;
#X obj 798 803 press 69 1.5 midi1;
#X obj 798 827 press 69 0.5 midi1;
#X obj 798 851 press 69 0.5 midi1;
#X obj 798 875 press 71 0.5 midi1;
#X obj 798 899 press 69 0.5 midi1;
#X obj 798 923 press 67 0.5 midi1;
#X obj 797 947 press 74 1 midi1;
#X obj 935 947 press 73 1 midi1;
#X obj 797 971 press 74 2 midi1;
#X obj 797 995 press 72 1 midi1;
#X obj 797 1019 press 71 1 midi1;
#X obj 797 1043 press 67 1 midi1;
#X obj 797 1067 press 74 1 midi1;
#X obj 797 1091 press 69 1 midi1;
#X obj 797 1115 press 71 2 midi1;
#X obj 797 1139 press 69 2 midi1;
#X obj 935 971 press 71 2 midi1;
#X obj 935 995 press 69 1 midi1;
#X obj 935 1019 press 69 1 midi1;
#X obj 935 1069 press 69 1 midi1;
#X obj 936 1118 press 67 2 midi1;
#X obj 936 1142 press 64 2 midi1;
#X obj 1085 775 r sec23;
#X obj 1085 799 press 69 1 midi1;
#X obj 1354 821 press 69 2 midi1;
#X obj 1221 824 press 74 2 midi1;
#X obj 1085 823 press 78 2 midi1;
#X obj 1085 847 press 76 1 midi1;
#X obj 1350 869 press 66 1 midi1;
#X obj 1220 870 press 73 1 midi1;
#X obj 1085 871 press 74 1 midi1;
#X obj 1085 895 press 86 2 midi1;
#X obj 1085 919 press 84 1 midi1;
#X obj 1085 943 press 83 1 midi1;
#X obj 1220 894 press 83 2 midi1;
#X obj 1220 918 press 81 1 midi1;
#X obj 1220 942 press 81 1 midi1;
#X obj 1350 893 press 74 2 midi1;
#X obj 1350 917 press 76 1 midi1;
#X obj 1350 941 press 74 1 midi1;
#X obj 1085 967 press 79 1 midi1;
#X obj 1085 993 press 86 1 midi1;
#X obj 1085 1017 press 81 1 midi1;
#X obj 1220 992 press 81 1 midi1;
#X obj 1085 1041 press 83 1.5 midi1;
#X obj 1220 1016 press 78 1 midi1;
#X obj 1350 991 press 78 1 midi1;
#X obj 1350 1015 press 74 1 midi1;
#X obj 1350 1039 press 74 1.5 midi1;
#X obj 1220 1039 press 79 1.5 midi1;
#X obj 1085 1064 press 76 0.5 midi1;
#X obj 1353 1086 press 73 1 midi1;
#X obj 1225 1087 press 76 1 midi1;
#X obj 1085 1088 press 81 1 midi1;
#X obj 1085 1112 press 79 1 midi1;
#X obj 1515 771 r sec24;
#X obj 1773 793 press 69 2 midi1;
#X obj 1646 794 press 78 2 midi1;
#X obj 1515 795 press 81 2 midi1;
#X obj 1515 819 press 69 1.5 midi1;
#X obj 1515 843 press 67 0.5 midi1;
#X obj 1515 869 press 78 2 midi1;
#X obj 1647 868 press 66 2 midi1;
#X obj 1515 893 press 78 1.5 midi1;
#X obj 1515 917 press 76 0.5 midi1;
#X obj 1646 941 press 74 2 midi1;
#X obj 1515 941 press 79 2 midi1;
#X obj 1515 965 press 81 1 midi1;
#X obj 1515 989 press 74 1 midi1;
#X obj 1646 965 press 78 1 midi1;
#X obj 1646 989 press 62 1 midi1;
#X obj 1515 1013 press 74 1.5 midi1;
#X obj 1515 1037 press 76 0.5 midi1;
#X obj 1515 1062 press 76 1.5 midi1;
#X obj 1515 1085 press 73 0.5 midi1;
#X obj 1646 1013 press 71 1 midi1;
#X obj 1653 1063 press 64 1.5 midi1;
#X obj 1653 1087 press 69 0.5 midi1;
#X obj 169 511 s sec9;
#X obj 176 537 s sec10;
#X obj 189 564 s sec11;
#X obj 203 593 s sec12;
#X obj 216 622 s sec13;
#X obj 227 653 s sec14;
#X obj 239 680 s sec15;
#X obj 365 528 s sec16;
#X obj 374 554 s sec17;
#X obj 385 581 s sec18;
#X obj 399 610 s sec19;
#X obj 412 639 s sec20;
#X obj 423 670 s sec21;
#X obj 434 697 s sec22;
#X obj 454 531 s sec23;
#X obj 465 558 s sec24;
#X obj 88 471 sel 1 2 3 4 5 6 7 8 9 10 11 12 13 14 15 16 17 18 19 20
21 22 23 24;
#X obj 5374 187 press 67 0.5 midi1;
#X obj 132 412 % 25;
#X obj 575 429 writesf~ 1;
#X msg 583 373 start;
#X msg 613 400 end;
#X msg 556 344 open yee_canon.wav;
#X obj 40 231 clone yee 7 50 50 0.5 300;
#X obj 307 217 + 24;
#X connect 0 0 1 0;
#X connect 0 1 2 0;
#X connect 0 2 3 0;
#X connect 1 0 13 0;
#X connect 2 0 13 1;
#X connect 5 0 4 0;
#X connect 5 0 4 1;
#X connect 5 0 757 0;
#X connect 6 0 5 1;
#X connect 7 0 16 0;
#X connect 7 1 16 1;
#X connect 7 2 16 2;
#X connect 8 0 5 0;
#X connect 9 0 72 0;
#X connect 11 0 756 0;
#X connect 12 0 11 0;
#X connect 12 0 73 0;
#X connect 13 0 7 0;
#X connect 14 0 15 0;
#X connect 15 0 17 0;
#X connect 15 1 71 0;
#X connect 15 2 17 2;
#X connect 16 0 761 0;
#X connect 17 0 761 0;
#X connect 18 0 12 1;
#X connect 22 0 15 0;
#X connect 23 0 24 0;
#X connect 24 0 25 0;
#X connect 25 0 26 0;
#X connect 26 0 27 0;
#X connect 27 0 28 0;
#X connect 28 0 29 0;
#X connect 29 0 30 0;
#X connect 30 0 31 0;
#X connect 31 0 32 0;
#X connect 32 0 33 0;
#X connect 33 0 37 0;
#X connect 34 0 35 0;
#X connect 35 0 36 0;
#X connect 36 0 38 0;
#X connect 37 0 34 0;
#X connect 38 0 39 0;
#X connect 39 0 40 0;
#X connect 40 0 41 0;
#X connect 41 0 42 0;
#X connect 42 0 43 0;
#X connect 43 0 44 0;
#X connect 44 0 45 0;
#X connect 45 0 46 0;
#X connect 46 0 50 0;
#X connect 47 0 48 0;
#X connect 48 0 49 0;
#X connect 49 0 51 0;
#X connect 50 0 47 0;
#X connect 51 0 52 0;
#X connect 52 0 53 0;
#X connect 53 0 54 0;
#X connect 55 0 56 0;
#X connect 56 0 57 0;
#X connect 57 0 58 0;
#X connect 58 0 59 0;
#X connect 59 0 60 0;
#X connect 60 0 61 0;
#X connect 61 0 62 0;
#X connect 63 0 64 0;
#X connect 64 0 65 0;
#X connect 65 0 66 0;
#X connect 66 0 67 0;
#X connect 67 0 68 0;
#X connect 68 0 69 0;
#X connect 69 0 70 0;
#X connect 71 0 762 0;
#X connect 72 0 10 0;
#X connect 72 0 12 0;
#X connect 72 0 23 0;
#X connect 73 0 12 1;
#X connect 79 0 80 0;
#X connect 80 0 81 0;
#X connect 81 0 82 0;
#X connect 82 0 83 0;
#X connect 83 0 84 0;
#X connect 84 0 85 0;
#X connect 85 0 86 0;
#X connect 87 0 88 0;
#X connect 88 0 89 0;
#X connect 89 0 90 0;
#X connect 90 0 91 0;
#X connect 91 0 92 0;
#X connect 92 0 93 0;
#X connect 93 0 94 0;
#X connect 95 0 63 0;
#X connect 95 0 79 0;
#X connect 95 0 87 0;
#X connect 96 0 55 0;
#X connect 97 0 98 0;
#X connect 98 0 99 0;
#X connect 99 0 100 0;
#X connect 100 0 101 0;
#X connect 101 0 102 0;
#X connect 102 0 103 0;
#X connect 103 0 104 0;
#X connect 104 0 105 0;
#X connect 105 0 106 0;
#X connect 106 0 107 0;
#X connect 107 0 108 0;
#X connect 108 0 109 0;
#X connect 109 0 110 0;
#X connect 110 0 111 0;
#X connect 111 0 112 0;
#X connect 112 0 113 0;
#X connect 114 0 128 0;
#X connect 114 0 132 0;
#X connect 115 0 130 0;
#X connect 116 0 117 0;
#X connect 117 0 118 0;
#X connect 117 0 136 0;
#X connect 118 0 119 0;
#X connect 119 0 120 0;
#X connect 119 0 137 0;
#X connect 120 0 121 0;
#X connect 121 0 122 0;
#X connect 121 0 138 0;
#X connect 122 0 123 0;
#X connect 123 0 124 0;
#X connect 123 0 135 0;
#X connect 124 0 125 0;
#X connect 126 0 127 0;
#X connect 126 0 131 0;
#X connect 127 0 114 0;
#X connect 128 0 129 0;
#X connect 129 0 115 0;
#X connect 130 0 116 0;
#X connect 130 0 134 0;
#X connect 139 0 140 0;
#X connect 140 0 141 0;
#X connect 141 0 142 0;
#X connect 142 0 143 0;
#X connect 143 0 144 0;
#X connect 144 0 145 0;
#X connect 145 0 146 0;
#X connect 146 0 147 0;
#X connect 147 0 148 0;
#X connect 148 0 149 0;
#X connect 149 0 150 0;
#X connect 150 0 151 0;
#X connect 151 0 152 0;
#X connect 152 0 153 0;
#X connect 153 0 154 0;
#X connect 154 0 155 0;
#X connect 155 0 156 0;
#X connect 156 0 157 0;
#X connect 157 0 158 0;
#X connect 158 0 159 0;
#X connect 159 0 160 0;
#X connect 160 0 161 0;
#X connect 161 0 162 0;
#X connect 165 0 23 0;
#X connect 166 0 140 0;
#X connect 167 0 168 0;
#X connect 168 0 169 0;
#X connect 169 0 170 0;
#X connect 170 0 171 0;
#X connect 171 0 172 0;
#X connect 172 0 173 0;
#X connect 173 0 174 0;
#X connect 174 0 175 0;
#X connect 175 0 176 0;
#X connect 176 0 177 0;
#X connect 177 0 178 0;
#X connect 178 0 179 0;
#X connect 179 0 180 0;
#X connect 180 0 181 0;
#X connect 181 0 182 0;
#X connect 182 0 183 0;
#X connect 183 0 186 0;
#X connect 184 0 189 0;
#X connect 185 0 190 0;
#X connect 186 0 187 0;
#X connect 187 0 188 0;
#X connect 188 0 184 0;
#X connect 189 0 185 0;
#X connect 190 0 191 0;
#X connect 191 0 192 0;
#X connect 192 0 193 0;
#X connect 193 0 194 0;
#X connect 194 0 195 0;
#X connect 195 0 196 0;
#X connect 196 0 197 0;
#X connect 197 0 198 0;
#X connect 198 0 199 0;
#X connect 200 0 202 0;
#X connect 201 0 200 0;
#X connect 202 0 203 0;
#X connect 203 0 204 0;
#X connect 204 0 205 0;
#X connect 205 0 206 0;
#X connect 206 0 207 0;
#X connect 207 0 208 0;
#X connect 208 0 209 0;
#X connect 209 0 210 0;
#X connect 210 0 211 0;
#X connect 211 0 212 0;
#X connect 212 0 213 0;
#X connect 213 0 214 0;
#X connect 214 0 215 0;
#X connect 215 0 216 0;
#X connect 216 0 217 0;
#X connect 217 0 218 0;
#X connect 218 0 219 0;
#X connect 219 0 220 0;
#X connect 220 0 221 0;
#X connect 221 0 222 0;
#X connect 222 0 223 0;
#X connect 223 0 224 0;
#X connect 224 0 225 0;
#X connect 225 0 226 0;
#X connect 226 0 227 0;
#X connect 227 0 228 0;
#X connect 228 0 229 0;
#X connect 229 0 230 0;
#X connect 230 0 231 0;
#X connect 231 0 232 0;
#X connect 233 0 234 0;
#X connect 234 0 235 0;
#X connect 235 0 236 0;
#X connect 236 0 237 0;
#X connect 237 0 238 0;
#X connect 238 0 239 0;
#X connect 239 0 290 0;
#X connect 240 0 242 0;
#X connect 241 0 240 0;
#X connect 242 0 243 0;
#X connect 243 0 244 0;
#X connect 244 0 245 0;
#X connect 245 0 246 0;
#X connect 246 0 247 0;
#X connect 247 0 248 0;
#X connect 248 0 249 0;
#X connect 249 0 250 0;
#X connect 250 0 251 0;
#X connect 251 0 252 0;
#X connect 252 0 253 0;
#X connect 253 0 254 0;
#X connect 254 0 255 0;
#X connect 255 0 256 0;
#X connect 256 0 257 0;
#X connect 257 0 258 0;
#X connect 258 0 259 0;
#X connect 259 0 260 0;
#X connect 260 0 275 0;
#X connect 261 0 262 0;
#X connect 262 0 265 0;
#X connect 263 0 264 0;
#X connect 263 0 266 0;
#X connect 265 0 263 0;
#X connect 266 0 267 0;
#X connect 267 0 268 0;
#X connect 268 0 269 0;
#X connect 269 0 270 0;
#X connect 270 0 271 0;
#X connect 271 0 272 0;
#X connect 272 0 273 0;
#X connect 273 0 274 0;
#X connect 274 0 291 0;
#X connect 275 0 261 0;
#X connect 276 0 277 0;
#X connect 277 0 278 0;
#X connect 278 0 279 0;
#X connect 279 0 280 0;
#X connect 280 0 281 0;
#X connect 281 0 282 0;
#X connect 282 0 283 0;
#X connect 283 0 284 0;
#X connect 284 0 285 0;
#X connect 285 0 286 0;
#X connect 286 0 287 0;
#X connect 287 0 288 0;
#X connect 289 0 234 0;
#X connect 290 0 241 0;
#X connect 291 0 276 0;
#X connect 292 0 350 0;
#X connect 293 0 294 0;
#X connect 294 0 296 0;
#X connect 296 0 295 0;
#X connect 296 0 297 0;
#X connect 297 0 298 0;
#X connect 298 0 299 0;
#X connect 299 0 300 0;
#X connect 300 0 301 0;
#X connect 301 0 302 0;
#X connect 302 0 303 0;
#X connect 303 0 304 0;
#X connect 304 0 305 0;
#X connect 305 0 306 0;
#X connect 306 0 307 0;
#X connect 307 0 308 0;
#X connect 308 0 309 0;
#X connect 309 0 310 0;
#X connect 310 0 311 0;
#X connect 311 0 312 0;
#X connect 312 0 313 0;
#X connect 313 0 314 0;
#X connect 314 0 315 0;
#X connect 315 0 316 0;
#X connect 316 0 317 0;
#X connect 317 0 318 0;
#X connect 318 0 319 0;
#X connect 319 0 320 0;
#X connect 320 0 321 0;
#X connect 321 0 322 0;
#X connect 322 0 323 0;
#X connect 323 0 325 0;
#X connect 325 0 324 0;
#X connect 325 0 326 0;
#X connect 326 0 327 0;
#X connect 327 0 334 0;
#X connect 328 0 329 0;
#X connect 329 0 330 0;
#X connect 330 0 331 0;
#X connect 331 0 332 0;
#X connect 332 0 333 0;
#X connect 333 0 339 0;
#X connect 334 0 335 0;
#X connect 335 0 328 0;
#X connect 336 0 337 0;
#X connect 337 0 338 0;
#X connect 338 0 340 0;
#X connect 339 0 336 0;
#X connect 340 0 341 0;
#X connect 341 0 342 0;
#X connect 342 0 343 0;
#X connect 343 0 344 0;
#X connect 344 0 345 0;
#X connect 345 0 346 0;
#X connect 346 0 347 0;
#X connect 347 0 348 0;
#X connect 348 0 349 0;
#X connect 350 0 293 0;
#X connect 351 0 352 0;
#X connect 352 0 353 0;
#X connect 353 0 354 0;
#X connect 354 0 355 0;
#X connect 355 0 356 0;
#X connect 356 0 357 0;
#X connect 357 0 358 0;
#X connect 358 0 359 0;
#X connect 359 0 360 0;
#X connect 360 0 361 0;
#X connect 361 0 362 0;
#X connect 362 0 363 0;
#X connect 363 0 364 0;
#X connect 364 0 365 0;
#X connect 365 0 366 0;
#X connect 366 0 367 0;
#X connect 367 0 368 0;
#X connect 368 0 369 0;
#X connect 369 0 370 0;
#X connect 370 0 371 0;
#X connect 371 0 372 0;
#X connect 372 0 373 0;
#X connect 373 0 374 0;
#X connect 374 0 375 0;
#X connect 375 0 376 0;
#X connect 376 0 377 0;
#X connect 377 0 378 0;
#X connect 379 0 380 0;
#X connect 380 0 381 0;
#X connect 381 0 382 0;
#X connect 382 0 383 0;
#X connect 383 0 384 0;
#X connect 384 0 385 0;
#X connect 385 0 386 0;
#X connect 386 0 387 0;
#X connect 387 0 388 0;
#X connect 388 0 389 0;
#X connect 389 0 390 0;
#X connect 390 0 391 0;
#X connect 391 0 392 0;
#X connect 392 0 393 0;
#X connect 393 0 394 0;
#X connect 394 0 395 0;
#X connect 395 0 396 0;
#X connect 396 0 397 0;
#X connect 397 0 398 0;
#X connect 398 0 399 0;
#X connect 399 0 400 0;
#X connect 400 0 401 0;
#X connect 401 0 402 0;
#X connect 402 0 403 0;
#X connect 403 0 404 0;
#X connect 405 0 406 0;
#X connect 406 0 407 0;
#X connect 407 0 408 0;
#X connect 408 0 409 0;
#X connect 409 0 410 0;
#X connect 410 0 411 0;
#X connect 411 0 412 0;
#X connect 412 0 413 0;
#X connect 413 0 414 0;
#X connect 414 0 415 0;
#X connect 415 0 416 0;
#X connect 416 0 417 0;
#X connect 417 0 418 0;
#X connect 418 0 419 0;
#X connect 419 0 420 0;
#X connect 420 0 421 0;
#X connect 421 0 422 0;
#X connect 422 0 423 0;
#X connect 423 0 424 0;
#X connect 424 0 425 0;
#X connect 425 0 426 0;
#X connect 426 0 427 0;
#X connect 427 0 755 0;
#X connect 428 0 429 0;
#X connect 429 0 430 0;
#X connect 430 0 431 0;
#X connect 431 0 432 0;
#X connect 432 0 433 0;
#X connect 433 0 434 0;
#X connect 434 0 435 0;
#X connect 435 0 436 0;
#X connect 437 0 438 0;
#X connect 438 0 439 0;
#X connect 439 0 440 0;
#X connect 440 0 441 0;
#X connect 441 0 442 0;
#X connect 442 0 443 0;
#X connect 443 0 444 0;
#X connect 444 0 445 0;
#X connect 445 0 446 0;
#X connect 446 0 447 0;
#X connect 447 0 448 0;
#X connect 448 0 449 0;
#X connect 449 0 450 0;
#X connect 450 0 451 0;
#X connect 451 0 452 0;
#X connect 452 0 453 0;
#X connect 453 0 454 0;
#X connect 454 0 455 0;
#X connect 455 0 456 0;
#X connect 456 0 457 0;
#X connect 457 0 458 0;
#X connect 458 0 459 0;
#X connect 459 0 460 0;
#X connect 460 0 461 0;
#X connect 461 0 462 0;
#X connect 462 0 463 0;
#X connect 463 0 464 0;
#X connect 464 0 465 0;
#X connect 465 0 466 0;
#X connect 466 0 467 0;
#X connect 467 0 468 0;
#X connect 468 0 469 0;
#X connect 470 0 472 0;
#X connect 472 0 474 0;
#X connect 474 0 475 0;
#X connect 475 0 476 0;
#X connect 476 0 477 0;
#X connect 477 0 471 0;
#X connect 477 0 478 0;
#X connect 478 0 479 0;
#X connect 479 0 480 0;
#X connect 480 0 481 0;
#X connect 481 0 482 0;
#X connect 482 0 484 0;
#X connect 482 0 485 0;
#X connect 483 0 486 0;
#X connect 484 0 483 0;
#X connect 486 0 487 0;
#X connect 486 0 488 0;
#X connect 487 0 489 0;
#X connect 489 0 490 0;
#X connect 489 0 491 0;
#X connect 490 0 492 0;
#X connect 492 0 493 0;
#X connect 493 0 494 0;
#X connect 494 0 495 0;
#X connect 495 0 499 0;
#X connect 495 0 500 0;
#X connect 496 0 497 0;
#X connect 497 0 498 0;
#X connect 498 0 507 0;
#X connect 499 0 501 0;
#X connect 501 0 502 0;
#X connect 502 0 503 0;
#X connect 503 0 504 0;
#X connect 504 0 505 0;
#X connect 504 0 506 0;
#X connect 505 0 496 0;
#X connect 507 0 509 0;
#X connect 507 0 510 0;
#X connect 508 0 514 0;
#X connect 508 0 515 0;
#X connect 508 0 516 0;
#X connect 509 0 511 0;
#X connect 511 0 512 0;
#X connect 512 0 513 0;
#X connect 513 0 508 0;
#X connect 514 0 517 0;
#X connect 518 0 519 0;
#X connect 518 0 521 0;
#X connect 518 0 522 0;
#X connect 520 0 523 0;
#X connect 522 0 520 0;
#X connect 523 0 524 0;
#X connect 524 0 525 0;
#X connect 525 0 526 0;
#X connect 526 0 527 0;
#X connect 527 0 528 0;
#X connect 528 0 529 0;
#X connect 529 0 530 0;
#X connect 530 0 531 0;
#X connect 531 0 532 0;
#X connect 532 0 533 0;
#X connect 532 0 534 0;
#X connect 533 0 535 0;
#X connect 535 0 536 0;
#X connect 536 0 537 0;
#X connect 536 0 538 0;
#X connect 537 0 539 0;
#X connect 539 0 540 0;
#X connect 541 0 542 0;
#X connect 541 0 543 0;
#X connect 542 0 546 0;
#X connect 544 0 545 0;
#X connect 545 0 548 0;
#X connect 545 0 549 0;
#X connect 546 0 547 0;
#X connect 547 0 544 0;
#X connect 548 0 550 0;
#X connect 550 0 551 0;
#X connect 551 0 552 0;
#X connect 552 0 553 0;
#X connect 553 0 554 0;
#X connect 553 0 555 0;
#X connect 554 0 556 0;
#X connect 556 0 557 0;
#X connect 557 0 558 0;
#X connect 558 0 559 0;
#X connect 559 0 560 0;
#X connect 559 0 561 0;
#X connect 560 0 562 0;
#X connect 562 0 563 0;
#X connect 563 0 564 0;
#X connect 564 0 565 0;
#X connect 565 0 566 0;
#X connect 565 0 567 0;
#X connect 566 0 570 0;
#X connect 569 0 577 0;
#X connect 570 0 571 0;
#X connect 571 0 572 0;
#X connect 572 0 573 0;
#X connect 573 0 568 0;
#X connect 573 0 574 0;
#X connect 574 0 575 0;
#X connect 575 0 576 0;
#X connect 576 0 569 0;
#X connect 577 0 579 0;
#X connect 577 0 580 0;
#X connect 578 0 589 0;
#X connect 579 0 581 0;
#X connect 581 0 582 0;
#X connect 582 0 583 0;
#X connect 583 0 584 0;
#X connect 584 0 585 0;
#X connect 584 0 586 0;
#X connect 585 0 587 0;
#X connect 587 0 588 0;
#X connect 588 0 578 0;
#X connect 590 0 591 0;
#X connect 590 0 592 0;
#X connect 590 0 593 0;
#X connect 591 0 599 0;
#X connect 593 0 594 0;
#X connect 594 0 595 0;
#X connect 595 0 596 0;
#X connect 596 0 597 0;
#X connect 597 0 598 0;
#X connect 598 0 609 0;
#X connect 599 0 600 0;
#X connect 600 0 601 0;
#X connect 601 0 602 0;
#X connect 602 0 603 0;
#X connect 603 0 610 0;
#X connect 604 0 605 0;
#X connect 605 0 606 0;
#X connect 606 0 607 0;
#X connect 607 0 608 0;
#X connect 608 0 616 0;
#X connect 608 0 617 0;
#X connect 609 0 604 0;
#X connect 610 0 611 0;
#X connect 611 0 612 0;
#X connect 612 0 613 0;
#X connect 613 0 614 0;
#X connect 614 0 615 0;
#X connect 616 0 618 0;
#X connect 618 0 619 0;
#X connect 619 0 620 0;
#X connect 620 0 621 0;
#X connect 621 0 622 0;
#X connect 622 0 623 0;
#X connect 623 0 624 0;
#X connect 624 0 625 0;
#X connect 625 0 626 0;
#X connect 626 0 627 0;
#X connect 627 0 628 0;
#X connect 627 0 629 0;
#X connect 628 0 630 0;
#X connect 631 0 632 0;
#X connect 631 0 633 0;
#X connect 631 0 634 0;
#X connect 634 0 635 0;
#X connect 635 0 636 0;
#X connect 636 0 637 0;
#X connect 637 0 638 0;
#X connect 638 0 639 0;
#X connect 639 0 640 0;
#X connect 640 0 641 0;
#X connect 641 0 642 0;
#X connect 642 0 643 0;
#X connect 643 0 644 0;
#X connect 644 0 645 0;
#X connect 645 0 646 0;
#X connect 646 0 647 0;
#X connect 647 0 648 0;
#X connect 648 0 649 0;
#X connect 649 0 650 0;
#X connect 650 0 651 0;
#X connect 651 0 652 0;
#X connect 652 0 653 0;
#X connect 653 0 654 0;
#X connect 654 0 655 0;
#X connect 655 0 656 0;
#X connect 656 0 657 0;
#X connect 657 0 658 0;
#X connect 659 0 660 0;
#X connect 660 0 661 0;
#X connect 661 0 662 0;
#X connect 662 0 663 0;
#X connect 663 0 664 0;
#X connect 664 0 665 0;
#X connect 665 0 666 0;
#X connect 665 0 667 0;
#X connect 666 0 668 0;
#X connect 667 0 676 0;
#X connect 668 0 669 0;
#X connect 669 0 670 0;
#X connect 670 0 671 0;
#X connect 671 0 672 0;
#X connect 671 0 679 0;
#X connect 672 0 673 0;
#X connect 673 0 674 0;
#X connect 673 0 680 0;
#X connect 674 0 675 0;
#X connect 676 0 677 0;
#X connect 677 0 678 0;
#X connect 680 0 681 0;
#X connect 682 0 683 0;
#X connect 683 0 684 0;
#X connect 683 0 685 0;
#X connect 683 0 686 0;
#X connect 686 0 687 0;
#X connect 687 0 688 0;
#X connect 687 0 689 0;
#X connect 687 0 690 0;
#X connect 688 0 697 0;
#X connect 689 0 694 0;
#X connect 690 0 691 0;
#X connect 691 0 692 0;
#X connect 692 0 693 0;
#X connect 693 0 700 0;
#X connect 694 0 695 0;
#X connect 695 0 696 0;
#X connect 697 0 698 0;
#X connect 698 0 699 0;
#X connect 700 0 701 0;
#X connect 700 0 703 0;
#X connect 700 0 706 0;
#X connect 701 0 702 0;
#X connect 702 0 704 0;
#X connect 703 0 705 0;
#X connect 704 0 710 0;
#X connect 705 0 709 0;
#X connect 706 0 707 0;
#X connect 707 0 708 0;
#X connect 710 0 711 0;
#X connect 710 0 712 0;
#X connect 710 0 713 0;
#X connect 713 0 714 0;
#X connect 715 0 716 0;
#X connect 715 0 717 0;
#X connect 715 0 718 0;
#X connect 718 0 719 0;
#X connect 719 0 720 0;
#X connect 720 0 721 0;
#X connect 720 0 722 0;
#X connect 721 0 723 0;
#X connect 723 0 724 0;
#X connect 724 0 725 0;
#X connect 724 0 726 0;
#X connect 725 0 729 0;
#X connect 726 0 727 0;
#X connect 727 0 728 0;
#X connect 728 0 731 0;
#X connect 729 0 730 0;
#X connect 730 0 735 0;
#X connect 731 0 732 0;
#X connect 732 0 733 0;
#X connect 732 0 736 0;
#X connect 733 0 734 0;
#X connect 736 0 737 0;
#X connect 754 1 74 0;
#X connect 754 2 75 0;
#X connect 754 3 76 0;
#X connect 754 4 77 0;
#X connect 754 5 78 0;
#X connect 754 6 163 0;
#X connect 754 7 164 0;
#X connect 754 8 738 0;
#X connect 754 9 739 0;
#X connect 754 10 740 0;
#X connect 754 11 741 0;
#X connect 754 12 742 0;
#X connect 754 13 743 0;
#X connect 754 14 744 0;
#X connect 754 15 745 0;
#X connect 754 16 746 0;
#X connect 754 17 747 0;
#X connect 754 18 748 0;
#X connect 754 19 749 0;
#X connect 754 20 750 0;
#X connect 754 21 751 0;
#X connect 754 22 752 0;
#X connect 754 23 753 0;
#X connect 755 0 428 0;
#X connect 756 0 754 0;
#X connect 758 0 757 0;
#X connect 759 0 757 0;
#X connect 760 0 757 0;
#X connect 762 0 17 1;
