#N canvas 492 1143 895 665 12;
#X obj 116 29 inlet;
#X obj 67 120 pack 0 1;
#X obj 204 174 pack 0 0;
#X obj 53 75 i \$1;
#X obj 206 144 i \$1;
#X obj 236 69 f \$2;
#X obj 204 121 delay 1000;
#X obj 136 201 s \$3;
#X obj 201 252 outlet;
#X obj 203 214 bng 15 250 50 0 empty empty empty 17 7 0 10 #fcfcfc
#000000 #000000;
#X text 288 93 500：1個四分音符所需要的時間，需要隨曲子調整
;
#X obj 235 93 * 600;
#X connect 0 0 3 0;
#X connect 0 0 5 0;
#X connect 0 0 6 0;
#X connect 1 0 7 0;
#X connect 2 0 7 0;
#X connect 2 0 9 0;
#X connect 3 0 1 0;
#X connect 4 0 2 0;
#X connect 5 0 11 0;
#X connect 6 0 4 0;
#X connect 9 0 8 0;
#X connect 11 0 6 1;
